<mxfile host="Electron" agent="Mozilla/5.0 (Macintosh; Intel Mac OS X 10_15_7) AppleWebKit/537.36 (KHTML, like Gecko) draw.io/26.0.9 Chrome/128.0.6613.186 Electron/32.2.5 Safari/537.36" version="26.0.9">
  <diagram id="BBTBgPeguMspx1ExuZYE" name="Page-4">
    <mxGraphModel dx="2680" dy="743" grid="1" gridSize="10" guides="1" tooltips="1" connect="1" arrows="1" fold="1" page="1" pageScale="1" pageWidth="827" pageHeight="1169" math="0" shadow="0">
      <root>
        <mxCell id="0" />
        <mxCell id="1" parent="0" />
        <mxCell id="cN5y4G9h1jpa3G24g_gX-1" value="&lt;p style=&quot;margin-top: 6pt ; margin-bottom: 0pt ; margin-left: 0in ; direction: ltr ; unicode-bidi: embed ; vertical-align: baseline ; word-break: normal ; font-size: 14px&quot;&gt;&lt;br&gt;&lt;/p&gt;" style="rounded=1;whiteSpace=wrap;html=1;align=center;fontStyle=1;verticalAlign=middle;strokeColor=#0070F2;fillColor=#EBF8FF;strokeWidth=1.5;fontSize=12;fontFamily=Helvetica;container=0;recursiveResize=0;collapsible=0;fontColor=default;arcSize=2;" parent="1" vertex="1">
          <mxGeometry x="-1202" y="1101" width="1243" height="709" as="geometry" />
        </mxCell>
        <mxCell id="cN5y4G9h1jpa3G24g_gX-2" value=" SAP Business Data Cloud (BDC)" style="image;image=img/lib/sap/SAP_Logo.svg;editableCssRules=.*;verticalLabelPosition=middle;labelBackgroundColor=none;verticalAlign=middle;imageAspect=0;labelPosition=right;align=left;fontSize=16;fontStyle=1;spacingLeft=0;fontColor=#002A86;spacing=0;" parent="1" vertex="1">
          <mxGeometry x="-1163" y="1133" width="37" height="19" as="geometry" />
        </mxCell>
        <mxCell id="cN5y4G9h1jpa3G24g_gX-3" value="" style="group" parent="1" vertex="1" connectable="0">
          <mxGeometry x="-1127.25" y="1196" width="1078" height="720" as="geometry" />
        </mxCell>
        <mxCell id="cN5y4G9h1jpa3G24g_gX-4" value="&lt;span style=&quot;caret-color: rgba(0, 0, 0, 0); color: rgba(0, 0, 0, 0); font-family: monospace; font-size: 0px; font-style: normal; font-variant-caps: normal; font-weight: 400; letter-spacing: normal; text-align: start; text-indent: 0px; text-transform: none; word-spacing: 0px; -webkit-text-stroke-width: 0px; background-color: rgb(248, 249, 250); text-decoration: none; float: none; display: inline !important;&quot;&gt;%3CmxGraphModel%3E%3Croot%3E%3CmxCell%20id%3D%220%22%2F%3E%3CmxCell%20id%3D%221%22%20parent%3D%220%22%2F%3E%3CmxCell%20id%3D%222%22%20value%3D%22%26lt%3Bp%20style%3D%26quot%3Bcaret-color%3A%20rgb(0%2C%200%2C%200)%3B%20color%3A%20rgb(0%2C%200%2C%200)%3B%20margin-top%3A%200pt%3B%20margin-bottom%3A%200pt%3B%20margin-left%3A%200in%3B%20direction%3A%20ltr%3B%20unicode-bidi%3A%20embed%3B%20word-break%3A%20normal%3B%26quot%3B%26gt%3B%26lt%3Bspan%20style%3D%26quot%3Bcolor%3A%20rgb(89%2C%2089%2C%2089)%3B%20font-size%3A%2016px%3B%20font-weight%3A%20700%3B%26quot%3B%26gt%3BSAP%20Data%20Warehouse%26amp%3Bnbsp%3BCloud%26lt%3B%2Fspan%26gt%3B%26lt%3Bbr%26gt%3B%26lt%3B%2Fp%26gt%3B%22%20style%3D%22rounded%3D0%3BwhiteSpace%3Dwrap%3Bhtml%3D1%3BstrokeColor%3D%23B3B3B3%3BstrokeWidth%3D2%3BfillColor%3Dnone%3Balign%3Dleft%3BverticalAlign%3Dtop%3BfontSize%3D11%3BfontFamily%3DArial%3Bcontainer%3D1%3BrecursiveResize%3D0%3Bcollapsible%3D0%3BfontColor%3D%23595959%3B%22%20vertex%3D%221%22%20parent%3D%221%22%3E%3CmxGeometry%20x%3D%22600%22%20y%3D%22560%22%20width%3D%22400%22%20height%3D%22435%22%20as%3D%22geometry%22%2F%3E%3C%2FmxCell%3E%3CmxCell%20id%3D%223%22%20style%3D%22edgeStyle%3Dnone%3Brounded%3D0%3BorthogonalLoop%3D1%3BjettySize%3Dauto%3Bhtml%3D1%3BentryX%3D0%3BentryY%3D0.5%3BentryDx%3D0%3BentryDy%3D0%3Bdashed%3D1%3BstartArrow%3Dclassic%3BstartFill%3D1%3BendArrow%3Dclassic%3BendFill%3D1%3BstrokeColor%3D%23C0399F%3BstrokeWidth%3D1%3BfontSize%3D16%3B%22%20edge%3D%221%22%20parent%3D%222%22%3E%3CmxGeometry%20relative%3D%221%22%20as%3D%22geometry%22%3E%3CmxPoint%20x%3D%22377%22%20y%3D%2277%22%20as%3D%22sourcePoint%22%2F%3E%3CmxPoint%20x%3D%22377%22%20y%3D%2277%22%20as%3D%22targetPoint%22%2F%3E%3C%2FmxGeometry%3E%3C%2FmxCell%3E" style="rounded=1;whiteSpace=wrap;html=1;strokeColor=#0070F2;strokeWidth=2;fillColor=default;align=left;verticalAlign=top;fontSize=11;fontFamily=Arial;container=0;recursiveResize=0;collapsible=0;fontColor=#595959;arcSize=3;" parent="cN5y4G9h1jpa3G24g_gX-3" vertex="1">
          <mxGeometry x="392" y="107" width="684.23" height="469" as="geometry" />
        </mxCell>
        <mxCell id="cN5y4G9h1jpa3G24g_gX-5" value="" style="group" parent="cN5y4G9h1jpa3G24g_gX-3" vertex="1" connectable="0">
          <mxGeometry x="450.78" y="479" width="583" height="82" as="geometry" />
        </mxCell>
        <mxCell id="cN5y4G9h1jpa3G24g_gX-6" value="" style="rounded=1;whiteSpace=wrap;html=1;strokeColor=#0070F2;fillColor=#ffffff;arcSize=24;absoluteArcSize=1;imageWidth=64;imageHeight=64;strokeWidth=1.5;dashed=1;dashPattern=8 8;" parent="cN5y4G9h1jpa3G24g_gX-5" vertex="1">
          <mxGeometry width="583" height="82" as="geometry" />
        </mxCell>
        <mxCell id="cN5y4G9h1jpa3G24g_gX-7" value="&lt;font face=&quot;arial&quot; color=&quot;#1d2d3e&quot;&gt;&lt;span style=&quot;font-size: 14px;&quot;&gt;&lt;b&gt;Object Store&lt;/b&gt;&lt;/span&gt;&lt;/font&gt;" style="text;html=1;align=left;verticalAlign=middle;resizable=0;points=[];autosize=1;strokeColor=none;fillColor=none;fontSize=12;fontColor=default;fontFamily=Helvetica;" parent="cN5y4G9h1jpa3G24g_gX-5" vertex="1">
          <mxGeometry x="19.54189944134078" y="2.8424505928853696" width="110" height="30" as="geometry" />
        </mxCell>
        <mxCell id="cN5y4G9h1jpa3G24g_gX-8" value="&lt;div&gt;&lt;b&gt;SAP HANA Data Lake Files(Parquet File)&lt;/b&gt;&lt;/div&gt;" style="rounded=1;whiteSpace=wrap;html=1;strokeColor=#188918;fillColor=#f5fae5;arcSize=24;absoluteArcSize=1;imageWidth=64;imageHeight=64;strokeWidth=1;" parent="cN5y4G9h1jpa3G24g_gX-5" vertex="1">
          <mxGeometry x="170" y="18" width="260" height="50" as="geometry" />
        </mxCell>
        <mxCell id="cN5y4G9h1jpa3G24g_gX-10" value="&lt;span style=&quot;caret-color: rgba(0, 0, 0, 0); color: rgba(0, 0, 0, 0); font-family: monospace; font-size: 0px; font-style: normal; font-variant-caps: normal; font-weight: 400; letter-spacing: normal; text-align: start; text-indent: 0px; text-transform: none; word-spacing: 0px; -webkit-text-stroke-width: 0px; background-color: rgb(248, 249, 250); text-decoration: none; float: none; display: inline !important;&quot;&gt;%3CmxGraphModel%3E%3Croot%3E%3CmxCell%20id%3D%220%22%2F%3E%3CmxCell%20id%3D%221%22%20parent%3D%220%22%2F%3E%3CmxCell%20id%3D%222%22%20value%3D%22%26lt%3Bp%20style%3D%26quot%3Bcaret-color%3A%20rgb(0%2C%200%2C%200)%3B%20color%3A%20rgb(0%2C%200%2C%200)%3B%20margin-top%3A%200pt%3B%20margin-bottom%3A%200pt%3B%20margin-left%3A%200in%3B%20direction%3A%20ltr%3B%20unicode-bidi%3A%20embed%3B%20word-break%3A%20normal%3B%26quot%3B%26gt%3B%26lt%3Bspan%20style%3D%26quot%3Bcolor%3A%20rgb(89%2C%2089%2C%2089)%3B%20font-size%3A%2016px%3B%20font-weight%3A%20700%3B%26quot%3B%26gt%3BSAP%20Data%20Warehouse%26amp%3Bnbsp%3BCloud%26lt%3B%2Fspan%26gt%3B%26lt%3Bbr%26gt%3B%26lt%3B%2Fp%26gt%3B%22%20style%3D%22rounded%3D0%3BwhiteSpace%3Dwrap%3Bhtml%3D1%3BstrokeColor%3D%23B3B3B3%3BstrokeWidth%3D2%3BfillColor%3Dnone%3Balign%3Dleft%3BverticalAlign%3Dtop%3BfontSize%3D11%3BfontFamily%3DArial%3Bcontainer%3D1%3BrecursiveResize%3D0%3Bcollapsible%3D0%3BfontColor%3D%23595959%3B%22%20vertex%3D%221%22%20parent%3D%221%22%3E%3CmxGeometry%20x%3D%22600%22%20y%3D%22560%22%20width%3D%22400%22%20height%3D%22435%22%20as%3D%22geometry%22%2F%3E%3C%2FmxCell%3E%3CmxCell%20id%3D%223%22%20style%3D%22edgeStyle%3Dnone%3Brounded%3D0%3BorthogonalLoop%3D1%3BjettySize%3Dauto%3Bhtml%3D1%3BentryX%3D0%3BentryY%3D0.5%3BentryDx%3D0%3BentryDy%3D0%3Bdashed%3D1%3BstartArrow%3Dclassic%3BstartFill%3D1%3BendArrow%3Dclassic%3BendFill%3D1%3BstrokeColor%3D%23C0399F%3BstrokeWidth%3D1%3BfontSize%3D16%3B%22%20edge%3D%221%22%20parent%3D%222%22%3E%3CmxGeometry%20relative%3D%221%22%20as%3D%22geometry%22%3E%3CmxPoint%20x%3D%22377%22%20y%3D%2277%22%20as%3D%22sourcePoint%22%2F%3E%3CmxPoint%20x%3D%22377%22%20y%3D%2277%22%20as%3D%22targetPoint%22%2F%3E%3C%2FmxGeometry%3E%3C%2FmxCell%3E" style="rounded=1;whiteSpace=wrap;html=1;strokeColor=#0070F2;strokeWidth=2;fillColor=default;align=left;verticalAlign=top;fontSize=11;fontFamily=Arial;container=0;recursiveResize=0;collapsible=0;fontColor=#595959;arcSize=3;" parent="cN5y4G9h1jpa3G24g_gX-3" vertex="1">
          <mxGeometry y="107" width="317" height="471" as="geometry" />
        </mxCell>
        <mxCell id="cN5y4G9h1jpa3G24g_gX-11" value=" BW/4HANA (Data Producer)" style="image;image=img/lib/sap/SAP_Logo.svg;editableCssRules=.*;verticalLabelPosition=middle;labelBackgroundColor=none;verticalAlign=middle;imageAspect=0;labelPosition=right;align=left;fontSize=16;fontStyle=1;spacingLeft=0;fontColor=#002A86;spacing=0;" parent="cN5y4G9h1jpa3G24g_gX-3" vertex="1">
          <mxGeometry x="32" y="131.01999999999998" width="37" height="19" as="geometry" />
        </mxCell>
        <mxCell id="cN5y4G9h1jpa3G24g_gX-12" style="edgeStyle=orthogonalEdgeStyle;rounded=0;orthogonalLoop=1;jettySize=auto;html=1;exitX=0.5;exitY=1;exitDx=0;exitDy=0;" parent="cN5y4G9h1jpa3G24g_gX-3" edge="1">
          <mxGeometry relative="1" as="geometry">
            <mxPoint x="902.5300000000002" y="202" as="sourcePoint" />
            <mxPoint x="902.5300000000002" y="202" as="targetPoint" />
          </mxGeometry>
        </mxCell>
        <mxCell id="cN5y4G9h1jpa3G24g_gX-13" style="edgeStyle=none;rounded=0;orthogonalLoop=1;jettySize=auto;html=1;entryX=0;entryY=0.5;entryDx=0;entryDy=0;dashed=1;startArrow=classic;startFill=1;endArrow=classic;endFill=1;strokeColor=#C0399F;strokeWidth=1;fontSize=16;" parent="cN5y4G9h1jpa3G24g_gX-3" edge="1">
          <mxGeometry relative="1" as="geometry">
            <mxPoint x="1052.7800000000002" y="344.47000000000025" as="sourcePoint" />
            <mxPoint x="1052.7800000000002" y="344.47000000000025" as="targetPoint" />
          </mxGeometry>
        </mxCell>
        <mxCell id="cN5y4G9h1jpa3G24g_gX-14" value="" style="group" parent="cN5y4G9h1jpa3G24g_gX-3" vertex="1" connectable="0">
          <mxGeometry x="409.77999999999975" y="118" width="203" height="33.00000000000006" as="geometry" />
        </mxCell>
        <mxCell id="cN5y4G9h1jpa3G24g_gX-15" value="&lt;font style=&quot;font-size: 14px;&quot;&gt;&lt;span style=&quot;font-size: 14px;&quot;&gt;&lt;b style=&quot;font-size: 14px;&quot;&gt;SAP Datasphere&lt;/b&gt;&lt;/span&gt;&lt;/font&gt;" style="text;whiteSpace=wrap;html=1;align=center;spacing=0;container=0;fontColor=default;fontSize=14;" parent="cN5y4G9h1jpa3G24g_gX-14" vertex="1">
          <mxGeometry y="2.9400000000000546" width="203" height="30.06" as="geometry" />
        </mxCell>
        <mxCell id="cN5y4G9h1jpa3G24g_gX-16" value="" style="shape=image;verticalLabelPosition=bottom;verticalAlign=top;imageAspect=0;aspect=fixed;image=data:image/svg+xml,PHN2ZyB4bWxucz0iaHR0cDovL3d3dy53My5vcmcvMjAwMC9zdmciIGZpbGw9Im5vbmUiIHZpZXdCb3g9IjAgMCA0OSA0OSIgaGVpZ2h0PSI0OSIgd2lkdGg9IjQ5Ij4mI3hhOzxnIGNsaXAtcGF0aD0idXJsKCNjbGlwMF8yNjIyXzM5MTApIj4mI3hhOzxjaXJjbGUgc3Ryb2tlLXdpZHRoPSIwLjg1NzE0MyIgc3Ryb2tlPSIjRDVEQUREIiBmaWxsPSJ1cmwoI3BhaW50MF9saW5lYXJfMjYyMl8zOTEwKSIgcj0iMjMuNTcxNCIgY3k9IjI0LjAzNDkiIGN4PSIyNC41Ii8+JiN4YTs8cGF0aCBmaWxsPSJ1cmwoI3BhaW50MV9yYWRpYWxfMjYyMl8zOTEwKSIgZD0iTTI0LjE0NzEgMjguNDU4MUgyNC4xMTk3QzIyLjY4ODMgMjguNDUyNCAyMS4zMTczIDI3LjkxNzMgMjAuMzA1MSAyNi45NjkzQzE5LjI5MjkgMjYuMDIxNCAxOC43MjE2IDI0LjczNzIgMTguNzE1NSAyMy4zOTY2VjIzLjM0MzlDMTguNzA5MyAyMi4wMTE3IDE4LjgxMjkgMjAuNjgwOSAxOS4wMjU0IDE5LjM2MzZDMTkuMTk4OSAxOC4yNjQxIDE5LjQ3MTggMTcuMTgwNCAxOS44NDEgMTYuMTI0MkMyMC4xNzgzIDE1LjE5MjkgMjAuNTYyNiAxNC40NjM2IDIwLjk5MzkgMTMuOTM2M0MyMS40MjUzIDEzLjQwOSAyMS44NjYzIDEzLjE0NTMgMjIuMzE2OSAxMy4xNDUzQzIzLjIzNjMgMTMuMTQ1MyAyMy45MjU3IDEzLjQ5NjcgMjQuMzg0OSAxNC4xOTk1QzI0LjgyNzYgMTQuODczMiAyNS4wNjU5IDE1LjY0NjUgMjUuMDc1MSAxNi40MzY1QzI1LjA2NzkgMTMuOTE4OCAyNC43MzQ2IDEyLjMwNzUgMjQuMDc1MSAxMS42MDI2QzIzLjQwODMgMTAuODg5OSAyMi44MjIyIDEwLjUzNCAyMi4zMTY5IDEwLjUzNDlDMjEuNjk3MiAxMC41MzQ5IDIxLjEwNTkgMTAuNzk4NiAyMC41NDI5IDExLjMyNTlDMTkuOTk4MSAxMS44NzEyIDE5LjUxNzggMTIuNjgxIDE5LjEwMTggMTMuNzU1NEMxOC42MzExIDE1LjA1ODMgMTguMjkzMyAxNi40MDAxIDE4LjA5MyAxNy43NjI4QzE3LjgzMDQgMTkuNjMyOSAxNy42OTkgMjEuNTE3MSAxNy42OTk1IDIzLjQwMzNDMTcuNzAwMSAyNC4wOTI2IDE3LjkwNDYgMjQuNzY4MSAxOC4yOTA0IDI1LjM1NTFDMTguNjY4OCAyNS45NzQzIDE5LjE3MDIgMjYuNTE5OSAxOS43Njc2IDI2Ljk2MjZDMjAuMzg5NyAyNy40MjYxIDIxLjA4ODggMjcuNzkwOCAyMS44MzcgMjguMDQyNEMyMi41NTE2IDI4LjMxNjYgMjMuMzE1OCAyOC40NTk2IDI0LjA4OCAyOC40NjM1TDI0LjE0NzEgMjguNDU4MVoiLz4mI3hhOzxwYXRoIGZpbGw9InVybCgjcGFpbnQyX3JhZGlhbF8yNjIyXzM5MTApIiBkPSJNMjIuNjU1NiAzNC41MjI1QzIxLjk5ODQgMzQuNzMzIDIxLjQ0NSAzNC43MTUxIDIwLjk5NTQgMzQuNDY4NUMyMC42NzggMzQuMjE4NSAyMC40MjI4IDMzLjkwNjcgMjAuMjQ3NCAzMy41NTQ3QzIwLjA1ODQgMzMuMTk4MiAxOS45NTk3IDMyLjgwNTYgMTkuOTU5MiAzMi40MDc0QzE5Ljk1ODYgMzIuMzQxNSAxOS45NjM1IDMyLjI3NTYgMTkuOTczNiAzMi4yMTA0QzE5Ljk4MSAzMi4xNTg2IDE5Ljk4NTYgMzIuMTA2NSAxOS45ODczIDMyLjA1NDNDMTkuNjgzMyAzMy4zMzUyIDE5LjU4NzUgMzQuNDQ5OSAxOS42OTk4IDM1LjM5ODVDMTkuODEyMiAzNi4zNDc4IDIwLjE4NzkgMzYuOTgwNCAyMC44MjY4IDM3LjI5NjJDMjEuMzcwNiAzNy41OTU4IDIyLjAzNjQgMzcuNjEzNCAyMi44MjQyIDM3LjM0ODhDMjMuNjMxMiAzNy4xMDIzIDI0LjQ4OTYgMzYuNjI4MSAyNS4zOTk1IDM1LjkyNjJDMjYuNDIzNSAzNS4xMTI2IDI3LjM2MTcgMzQuMjA4NiAyOC4yMDEgMzMuMjI2N0MyOS4xODQzIDMyLjA1OCAzMC4wNzc2IDMwLjgyNTMgMzAuODc0MyAyOS41Mzc5TDMxLjE4NDEgMjkuMDg5OEMzMC44NjU2IDI4Ljk1NDggMzAuNTcwMiAyOC44MTU4IDMwLjI5NzggMjguNjg0OUMzMC4wNDM3IDI4LjU2MjcgMjkuNzkzNCAyOC40Mjc3IDI5LjU0OCAyOC4yODE5QzI4LjgyMTYgMjkuMzEyMyAyOC4wMjM1IDMwLjI5NjggMjcuMTU5MSAzMS4yMjkxQzI2LjQzNjMgMzIuMDEzNiAyNS42NDA2IDMyLjczNjMgMjQuNzgxMiAzMy4zODg3QzI0LjAyMTMgMzMuOTUwMiAyMy4zMTI3IDM0LjMyODEgMjIuNjU1NiAzNC41MjI1WiIvPiYjeGE7PHBhdGggZmlsbD0idXJsKCNwYWludDNfcmFkaWFsXzI2MjJfMzkxMCkiIGQ9Ik0zMi42OTg3IDI2LjA3MzFDMzIuODY3MyAyNS42OTUyIDMzLjAyNTkgMjUuMzEzMiAzMy4xNzcyIDI0LjkyNThIMzMuMTgyOUMzMy4wMTQzIDI0LjY5NzcgMzIuODQgMjQuNDg1OCAzMi42NjI3IDI0LjI4MzRDMzIuNDg1NCAyNC4wODA5IDMyLjMwMjQgMjMuODgzOCAzMi4xMTUxIDIzLjY4OTVDMzEuODMyNiAyNC4zMDUgMzEuNTU0NSAyNC44NjY0IDMxLjI4MzYgMjUuMzc2N0MzMS4wMzc4IDI1LjgzOTQgMzAuNzcwOCAyNi4yODY2IDMwLjQ4NTYgMjYuNzIwMkMzMC43MzIgMjYuODYyNCAzMC45OTU1IDI2Ljk3NjggMzEuMjcwNiAyNy4wNjExQzMxLjU1MDIgMjcuMTQ5MSAzMS44NDA5IDI3LjIwMjIgMzIuMTM1MyAyNy4yMTlIMzIuMTY0MUMzMi4zNTE0IDI2LjgzMyAzMi41MzAxIDI2LjQ1MSAzMi42OTg3IDI2LjA3MzFaIi8+JiN4YTs8cGF0aCBmaWxsPSJ1cmwoI3BhaW50NF9yYWRpYWxfMjYyMl8zOTEwKSIgZD0iTTMzLjcxMTggMTguMTUxNVYxOC4xNzcxQzMzLjY3OTYgMTguNjQ5OCAzMy42MjA5IDE5LjEyMDcgMzMuNTM2IDE5LjU4NzZDMzMuNDU3MyAyMC4wMDExIDMzLjM1OTQgMjAuNDEwMSAzMy4yNDIzIDIwLjgxNDRDMzMuMzkyMSAyMC45MjEyIDMzLjUzNTggMjEuMDM1MyAzMy42NzI5IDIxLjE1NkMzMy44MDU4IDIxLjI3NDYgMzMuOTUwNiAyMS4zODA4IDM0LjEwNTMgMjEuNDczMkMzNC4xNDQ3IDIxLjMwMzYgMzQuMTczMSAyMS4xMzE4IDM0LjE5MDMgMjAuOTU5QzM0LjIwOSAyMC43NyAzNC4yMTc3IDIwLjU3NTYgMzQuMjE3NyAyMC4zNjUxQzM0LjIxNzggMTkuOTgwMSAzNC4xNzU4IDE5LjU5NjEgMzQuMDkyMyAxOS4yMTkxQzM0LjAxMDcgMTguODUwNSAzMy44ODMgMTguNDkyMiAzMy43MTE4IDE4LjE1MTVaIi8+JiN4YTs8cGF0aCBmaWxsPSJ1cmwoI3BhaW50NV9yYWRpYWxfMjYyMl8zOTEwKSIgZD0iTTE2LjkxNDEgMjUuMjQzTDE2LjgyOTEgMjUuMjk1N0MxNi41NzMxIDI1LjQxNDQgMTYuMzI0NCAyNS41NDY1IDE2LjA4NCAyNS42OTExQzE1Ljg0ODcgMjUuODMxNSAxNS42MjgyIDI1Ljk3MTkgMTUuNDIyNiAyNi4xMTIzTDE1LjA1NjUgMjUuNTMzMkMxNC4yNzIyIDI0LjI0NDYgMTMuNTg1NCAyMi45MDYgMTMuMDAxNSAyMS41MjcyQzEyLjUyMDIgMjAuMzU3NyAxMi4xNTc0IDE5LjE0ODQgMTEuOTE3OCAxNy45MTUzQzExLjcyMDggMTYuODI2NSAxMS42OTczIDE1Ljg5NTIgMTEuODQ3MiAxNS4xMjEzQzExLjk5NyAxNC4zNDc1IDEyLjM0NDMgMTMuODExMiAxMi44ODkxIDEzLjUxMjRDMTMuNTI2MSAxMy4xNzg2IDE0LjMwOTUgMTMuMTk2MSAxNS4yMzk1IDEzLjU2NTFDMTYuMTY5NiAxMy45MzQgMTcuMTM4OSAxNC41OTQgMTguMTQ3NyAxNS41NDUxQzE3LjY3ODEgMTUuMjY0MiAxNy4xNTg5IDE1LjA2MzUgMTYuNjE0NCAxNC45NTI2QzE2LjIwNjkgMTQuODY0OSAxNS43NzkxIDE0LjkyNjIgMTUuNDE4MiAxNS4xMjRDMTQuOTQ4NCAxNS4zNjk3IDE0LjYzODYgMTUuODA4OCAxNC40ODg3IDE2LjQ0MTRDMTQuMzU3MSAxNy4yMTQ4IDE0LjM2MiAxOC4wMDMyIDE0LjUwMzEgMTguNzc1MUMxNC42NzY1IDE5LjgwMzYgMTQuOTU0NCAyMC44MTQyIDE1LjMzMzIgMjEuNzkzMUMxNS43ODE1IDIyLjk3NzkgMTYuMzE3NSAyNC4xMzIxIDE2LjkzNzIgMjUuMjQ3MUwxNi45MTQxIDI1LjI0M1oiLz4mI3hhOzxwYXRoIGZpbGw9InVybCgjcGFpbnQ2X3JhZGlhbF8yNjIyXzM5MTApIiBkPSJNMTYuNTc1NSAyNy43MTk4QzE2Ljc0NTQgMjcuNTA4NCAxNi45Mzg3IDI3LjMxNDMgMTcuMTUxOSAyNy4xNDA4QzE3LjM3NDggMjYuOTYwNSAxNy42MTYyIDI2LjgwMTQgMTcuODcyNSAyNi42NjU3QzE4LjIwOTcgMjcuMTkzOSAxOC41NDYgMjcuNjk5MSAxOC44ODEzIDI4LjE4MTRDMTkuMjE4NSAyOC42NjYgMTkuNTY1OCAyOS4xMjYyIDE5LjkyMzIgMjkuNTY2MkwxOS40NDQ3IDI5LjY0NDVIMTkuNTAwOUMxOS4zMTIyIDI5LjY3OTYgMTkuMTE2MiAyOS43MTA3IDE4LjkwODYgMjkuNzM3N0MxOC43MDExIDI5Ljc2NDcgMTguNDg3OCAyOS43ODYzIDE4LjI2MTYgMjkuODAyNEMxNy45ODAxIDI5LjUwNDYgMTcuNjk4NiAyOS4xNzk4IDE3LjQxNzEgMjguODI3OUMxNy4xMzU2IDI4LjQ3NjEgMTYuODU0MSAyOC4xMTYyIDE2LjU3MjYgMjcuNzQ4MUwxNi41NzU1IDI3LjcxOThaIi8+JiN4YTs8cGF0aCBmaWxsPSJ1cmwoI3BhaW50N19yYWRpYWxfMjYyMl8zOTEwKSIgZD0iTTI0LjExOTcgMzMuNTE5NkMyMy41Mjk1IDMzLjQ3MiAyMi45NTI4IDMzLjMyNzEgMjIuNDE2MyAzMy4wOTE4QzIxLjg5ODcgMzIuODY0OSAyMS40MTk4IDMyLjU2NzUgMjAuOTk1NCAzMi4yMDlMMjIuMDM1OSAzMS44MzkyVjMxLjg2NjJDMjIuMzU1OCAzMi4xNjQ5IDIyLjY4OTIgMzIuNDU0NyAyMy4wMzYgMzIuNzM1NEMyMy4zODgyIDMzLjAyMDggMjMuNzU5MyAzMy4yODQ5IDI0LjE0NzEgMzMuNTI2NEwyNC4xMTk3IDMzLjUxOTZaIi8+JiN4YTs8cGF0aCBmaWxsPSJ1cmwoI3BhaW50OF9yYWRpYWxfMjYyMl8zOTEwKSIgZD0iTTI2Ljg3OCAyNy43MTk4SDI2LjkwNTRDMjcuNzI4MSAyNy4yODQzIDI4LjQxMjggMjYuNjUyMyAyOC44ODk4IDI1Ljg4ODJDMjkuMzg0NiAyNS4xMTM1IDI5LjY0MjkgMjQuMjI2NCAyOS42MzYzIDIzLjMyMzdDMjkuNjM3NyAyMi44NjAzIDI5LjU3MTMgMjIuMzk4OSAyOS40Mzg5IDIxLjk1MjRMMjkuNDIwNSAyMS44OTExQzI5LjUyNDMgMjIuMTg1NSAyOS42MDU2IDIyLjQ4NyAyOS42NjM3IDIyLjc5MzNDMjkuNzk0OSAyMy41MjE5IDI5Ljc5NDkgMjQuMjY2IDI5LjY2MzcgMjQuOTk0N0MyOS41Mzk5IDI1LjcwMzYgMjkuMjgyNyAyNi4zODY0IDI4LjkwNDMgMjcuMDExMkMyOC41Mzg0IDI3LjYxNyAyOC4wMDM0IDI4LjExODIgMjcuMzU2NSAyOC40NjA4QzI1LjYyOTEgMjkuNDIwMiAyMy44MzI1IDMwLjI2NTggMjEuOTc5NyAzMC45OTE2QzIwLjM4NDggMzEuNTkgMTguOTg2OSAzMS45ODk5IDE3Ljc4NiAzMi4xOTE1QzE2LjU4NTEgMzIuMzkzMSAxNS41OTk4IDMyLjM5NzUgMTQuODMwMyAzMi4yMDVDMTQuMDYxNyAzMi4wMjk1IDEzLjUxNzkgMzEuNjg2NyAxMy4xOTg5IDMxLjE3NjVDMTIuOTUzOSAzMC43NzI1IDEyLjk5NjIgMzAuMTIyMyAxMy4zMjU3IDI5LjIyNjFDMTMuNjUxMiAyOC4zNDA5IDE0Ljk2NzUgMjcuMjc2NSAxNy4yNzQ2IDI2LjAzMzFDMTYuNTQ4NCAyNi40MzE1IDE1LjkzMiAyNi45ODQ3IDE1LjQ3NTkgMjcuNjQ4M0MxNS4wMjQzIDI4LjMxNTkgMTUuMDUyMiAyOS4wNjI4IDE1LjU1OTUgMjkuODg4OEMxNS44MjE4IDMwLjMxMDggMTYuMzA5OCAzMC41NjU1IDE3LjAyMzcgMzAuNjUyOEMxNy43NTU3IDMwLjc0MjggMTguNjI4MSAzMC42ODU2IDE5LjY0MDcgMzAuNDgxNEMyMC43OTM5IDMwLjIzOTggMjEuOTIzNyAyOS45MDk0IDIzLjAxODcgMjkuNDkzNEMyNC4zMjY4IDI4Ljk4NTkgMjUuNTk2NSAyOC4zOTU2IDI2LjgxOSAyNy43MjY1TDI2Ljg3OCAyNy43MTk4WiIvPiYjeGE7PHBhdGggZmlsbD0idXJsKCNwYWludDlfcmFkaWFsXzI2MjJfMzkxMCkiIGQ9Ik0yNi44NDkyIDE4Ljg4ODVDMjYuNDQ0IDE4LjY1NiAyNi4wMDggMTguNDc0NSAyNS41NTIyIDE4LjM0ODZDMjUuMDc3MSAxOC4yMTU5IDI0LjU4MzggMTguMTQ5NSAyNC4wODggMTguMTUxNUMyMy4xMTU0IDE4LjE0MDUgMjIuMTU5MyAxOC4zODcxIDIxLjMyOTcgMTguODYyOEMyMC41MTc3IDE5LjMyNDQgMTkuODQwNyAxOS45Njc3IDE5LjM1OTcgMjAuNzM0OUMxOS43NTEgMjAuMTAyOSAyMC4yNjkyIDE5LjU0NzggMjAuODg1OSAxOS4xMDA0QzIxLjQ5MDkgMTguNjMyNSAyMi4xNzIxIDE4LjI1ODQgMjIuOTAzNCAxNy45OTIyQzIzLjYyMTIgMTcuNzMxMiAyNC4zODQ1IDE3LjU5NzEgMjUuMTU0NSAxNy41OTY4QzI1LjkwNTEgMTcuNTkyNSAyNi42NDM1IDE3Ljc3NDYgMjcuMjk0NSAxOC4xMjQ1QzI5LjAyOTIgMTkuMDM0IDMwLjY5NCAyMC4wNTYgMzIuMjc2NSAyMS4xODNDMzMuNjQ1NSAyMi4xODQ1IDM0LjcxOTcgMjMuMTIwMyAzNS40OTg4IDIzLjk5MDVDMzYuMjc4IDI0Ljg2MDYgMzYuNzggMjUuNjU1NiAzNy4wMDQ4IDI2LjM3NTVDMzcuMjI5NiAyNy4wOTUzIDM3LjE4MTYgMjcuNzEwOCAzNi44NjA3IDI4LjIyMTlDMzYuNjE3NiAyOC42MjU5IDM1Ljk5ODQgMjguOTIwMiAzNS4wMDMxIDI5LjEwNDZDMzQuMDMzNSAyOS4yODQzIDMyLjQxMjkgMjguNzY3NyAzMC4xNDE0IDI3LjU1NDdDMzAuODUwNiAyNy45MTg3IDMxLjY0MDkgMjguMTI0OCAzMi40NTA5IDI4LjE1NThDMzMuMzA0IDI4LjE4MTkgMzMuOTg0MiAyNy43ODE5IDM0LjQ5MTUgMjYuOTU1OEMzNC43MzQ2IDI2LjUzNDcgMzQuNzI0OSAyNi4wMDc0IDM0LjQ2MjcgMjUuMzc0QzM0LjE4MjEgMjQuNzYwMyAzMy42OTQ1IDI0LjA4ODEgMzIuOTk5OSAyMy4zNTc0QzMyLjIwMzcgMjIuNTM2OSAzMS4zMzI5IDIxLjc4MjcgMzAuMzk3MyAyMS4xMDM0QzI5LjI2NyAyMC4yNzQ1IDI4LjA3MjMgMTkuNTI1NiAyNi44MjMzIDE4Ljg2MjhMMjYuODQ5MiAxOC44ODg1WiIvPiYjeGE7PHBhdGggZmlsbD0idXJsKCNwYWludDEwX3JhZGlhbF8yNjIyXzM5MTApIiBkPSJNMjYuNTA2MiAxNC44Mjk4QzI4LjExNjggMTQuODIzMyAyOS43MjU3IDE0LjkyODkgMzEuMzE5NiAxNS4xNDU2QzMyLjYzODUgMTUuMzM0MyAzMy45MzQ1IDE1LjY0MzUgMzUuMTg5IDE2LjA2ODhDMzYuMjg3MSAxNi40NTQ5IDM3LjE1NTIgMTYuOTA0OCAzNy43OTMxIDE3LjQxODZDMzguNDMwMSAxNy45NDUgMzguNzQ5IDE4LjQ5ODQgMzguNzUgMTkuMDc4OEMzOC43NSAxOS43NDY0IDM4LjMzNzQgMjAuMzY2IDM3LjUxMjEgMjAuOTM3NEMzNi42ODY4IDIxLjUwODcgMzUuNTgxOSAyMS45Nzg5IDM0LjE5NzUgMjIuMzQ3OEMzNC42OTMgMjIuMDk4OCAzNS4xNDAyIDIxLjc3MzUgMzUuNTIwNCAyMS4zODU1QzM1LjgxNDkgMjEuMDk3IDM1Ljk4NTMgMjAuNzE2OCAzNS45OTg5IDIwLjMxNzhDMzUuOTk4OSAxOS44NDQ1IDM1Ljc0NTcgMTkuMzg3OSAzNS4yMzk0IDE4Ljk0NzhDMzQuNjAzNCAxOC40NDc2IDMzLjg3OTIgMTguMDU0OCAzMy4wOTk0IDE3Ljc4NzFDMzIuMDU5MSAxNy40MTY4IDMwLjk4NTUgMTcuMTM0NCAyOS44OTE0IDE2Ljk0MzVDMjguNTgyMyAxNi43MDU5IDI3LjI1NTMgMTYuNTY1MSAyNS45MjI2IDE2LjUyMjRWMTQuODI5OEgyNi41MDYyWiIvPiYjeGE7PHBhdGggZmlsbD0idXJsKCNwYWludDExX3JhZGlhbF8yNjIyXzM5MTApIiBkPSJNMjQuMDkwOSAxNi4yNTI0QzI0LjA5MDkgMTYuMDIyMSAyNC4wNjI4IDE1Ljc5MjUgMjQuMDA3MyAxNS41NjgxQzIzLjk1NDIgMTUuMzUyNSAyMy44ODI3IDE1LjE0MTIgMjMuNzkzNSAxNC45MzYzQzIzLjI3MyAxNC45NzU3IDIyLjc3NjUgMTUuMDI0OCAyMi4zMDM5IDE1LjA4MzVDMjEuODI2NCAxNS4xNDI5IDIxLjM2MTkgMTUuMjE3NiAyMC45MTA0IDE1LjMwNzZMMjEuMDc5IDE1LjI4MTlDMjAuOTg1MyAxNS40NTc0IDIwLjg4NTkgMTUuNjY1MyAyMC43ODM1IDE1LjkwMTVDMjAuNjgxMiAxNi4xMzc3IDIwLjU5MTkgMTYuMzcxMiAyMC41MTY5IDE2LjU5OTNMMjAuNDYwNyAxNi43MDQ2QzIxLjA2MjIgMTYuNjQ5NyAyMS42NjI2IDE2LjYwNDcgMjIuMjYyMSAxNi41Njk2QzIyLjg2MTYgMTYuNTM0NSAyMy40NjIxIDE2LjUxNyAyNC4wNjM1IDE2LjUxN0MyNC4wODE3IDE2LjQ3OTcgMjQuMDkxMSAxNi40MzkyIDI0LjA5MDkgMTYuMzk4MlYxNi4yNTI0WiIvPiYjeGE7PHBhdGggZmlsbD0idXJsKCNwYWludDEyX3JhZGlhbF8yNjIyXzM5MTApIiBkPSJNMjkuNDIwNSAyMS44OTExQzI5LjI5NTUgMjEuNDg1NiAyOS4xMTI3IDIxLjA5NzUgMjguODc2OSAyMC43Mzc2QzI5LjA5NzkgMjEuMTA1NCAyOS4yNzk4IDIxLjQ5MTcgMjkuNDIwNSAyMS44OTExWk0xOS45ODggMzIuMDUxMUwxOS45ODczIDMyLjA1NDNDMTkuOTg3NyAzMi4wNDAyIDE5Ljk4OCAzMi4wMjYxIDE5Ljk4OCAzMi4wMTJWMzIuMDUxMVpNMjkuNTQ4IDI4LjI4MTlMMjkuNTUxMyAyOC4yNzcyTDI5LjQ5NTEgMjguMjUwMkwyOS41NDggMjguMjgxOVpNMjMuODA5OSAxNC45MzUxTDIzLjc4MTEgMTQuOTA4MUwyMy43OTM1IDE0LjkzNjNMMjMuODA5OSAxNC45MzUxWk0zMC40ODIzIDI2LjcxODNMMzAuNDg1NiAyNi43MjAyQzMwLjQ1NjMgMjYuNzY0NyAzMC40MjY5IDI2LjgwOTEgMzAuMzk3MyAyNi44NTMzTDMwLjQ4MjMgMjYuNzE4M1pNMzMuMjQwNiAyMC44MTMyTDMzLjI0MjMgMjAuODE0NEwzMy4yMTE4IDIwLjkxODVMMzMuMjQwNiAyMC44MTMyWiIgY2xpcC1ydWxlPSJldmVub2RkIiBmaWxsLXJ1bGU9ImV2ZW5vZGQiLz4mI3hhOzxwYXRoIGZpbGw9InVybCgjcGFpbnQxM19yYWRpYWxfMjYyMl8zOTEwKSIgZD0iTTE0LjU3ODEgMTguMTc3MUwxNC42MDU1IDE4LjE1MTVDMTQuOTQ4MSAxNy43MDc2IDE1LjM2NjkgMTcuMzE5OSAxNS44NDQ4IDE3LjAwNDJDMTYuMzM4IDE2LjY3NiAxNi44Nzc5IDE2LjQxNDMgMTcuNDQ4OCAxNi4yMjY4QzE3LjQxMTMgMTYuMzg0NyAxNy4zNzM5IDE2LjU1MjEgMTcuMzM2NCAxNi43Mjc1QzE3LjI5NzUgMTYuOTA5NyAxNy4yNzg3IDE3LjA5NTEgMTcuMjgwMiAxNy4yODA5TDE3LjE5NTIgMTcuMzA3OUMxNi43MzI5IDE3LjQxMSAxNi4yNzczIDE3LjUzODUgMTUuODMwNCAxNy42ODk5QzE1LjQwMTEgMTcuODM0OCAxNC45ODI3IDE4LjAwNjYgMTQuNTc4MSAxOC4yMDQxVjE4LjE3NzFaIi8+JiN4YTs8L2c+JiN4YTs8ZGVmcz4mI3hhOzxsaW5lYXJHcmFkaWVudCBncmFkaWVudFVuaXRzPSJ1c2VyU3BhY2VPblVzZSIgeTI9IjQ0LjI3OTIiIHgyPSI0MS41NjQ1IiB5MT0iNi44NDc3NSIgeDE9IjQuODUyODciIGlkPSJwYWludDBfbGluZWFyXzI2MjJfMzkxMCI+JiN4YTs8c3RvcCBzdG9wLWNvbG9yPSJ3aGl0ZSIvPiYjeGE7PHN0b3Agc3RvcC1jb2xvcj0iI0VBRUNFRSIgb2Zmc2V0PSIxIi8+JiN4YTs8L2xpbmVhckdyYWRpZW50PiYjeGE7PHJhZGlhbEdyYWRpZW50IGdyYWRpZW50VHJhbnNmb3JtPSJ0cmFuc2xhdGUoMTYuMDQ2OSAxNC41ODcxKSByb3RhdGUoNDUpIHNjYWxlKDI2Ljc0MDMgMzIuNDUzMSkiIGdyYWRpZW50VW5pdHM9InVzZXJTcGFjZU9uVXNlIiByPSIxIiBjeT0iMCIgY3g9IjAiIGlkPSJwYWludDFfcmFkaWFsXzI2MjJfMzkxMCI+JiN4YTs8c3RvcCBzdG9wLWNvbG9yPSIjMDBCQkZGIi8+JiN4YTs8c3RvcCBzdG9wLWNvbG9yPSIjMDA4QkZGIiBvZmZzZXQ9IjEiLz4mI3hhOzwvcmFkaWFsR3JhZGllbnQ+JiN4YTs8cmFkaWFsR3JhZGllbnQgZ3JhZGllbnRUcmFuc2Zvcm09InRyYW5zbGF0ZSgxNi4wNDY5IDE0LjU4NzEpIHJvdGF0ZSg0NSkgc2NhbGUoMjYuNzQwMyAzMi40NTMxKSIgZ3JhZGllbnRVbml0cz0idXNlclNwYWNlT25Vc2UiIHI9IjEiIGN5PSIwIiBjeD0iMCIgaWQ9InBhaW50Ml9yYWRpYWxfMjYyMl8zOTEwIj4mI3hhOzxzdG9wIHN0b3AtY29sb3I9IiMwMEJCRkYiLz4mI3hhOzxzdG9wIHN0b3AtY29sb3I9IiMwMDhCRkYiIG9mZnNldD0iMSIvPiYjeGE7PC9yYWRpYWxHcmFkaWVudD4mI3hhOzxyYWRpYWxHcmFkaWVudCBncmFkaWVudFRyYW5zZm9ybT0idHJhbnNsYXRlKDE2LjA0NjkgMTQuNTg3MSkgcm90YXRlKDQ1KSBzY2FsZSgyNi43NDAzIDMyLjQ1MzEpIiBncmFkaWVudFVuaXRzPSJ1c2VyU3BhY2VPblVzZSIgcj0iMSIgY3k9IjAiIGN4PSIwIiBpZD0icGFpbnQzX3JhZGlhbF8yNjIyXzM5MTAiPiYjeGE7PHN0b3Agc3RvcC1jb2xvcj0iIzAwQkJGRiIvPiYjeGE7PHN0b3Agc3RvcC1jb2xvcj0iIzAwOEJGRiIgb2Zmc2V0PSIxIi8+JiN4YTs8L3JhZGlhbEdyYWRpZW50PiYjeGE7PHJhZGlhbEdyYWRpZW50IGdyYWRpZW50VHJhbnNmb3JtPSJ0cmFuc2xhdGUoMTYuMDQ2OSAxNC41ODcxKSByb3RhdGUoNDUpIHNjYWxlKDI2Ljc0MDMgMzIuNDUzMSkiIGdyYWRpZW50VW5pdHM9InVzZXJTcGFjZU9uVXNlIiByPSIxIiBjeT0iMCIgY3g9IjAiIGlkPSJwYWludDRfcmFkaWFsXzI2MjJfMzkxMCI+JiN4YTs8c3RvcCBzdG9wLWNvbG9yPSIjMDBCQkZGIi8+JiN4YTs8c3RvcCBzdG9wLWNvbG9yPSIjMDA4QkZGIiBvZmZzZXQ9IjEiLz4mI3hhOzwvcmFkaWFsR3JhZGllbnQ+JiN4YTs8cmFkaWFsR3JhZGllbnQgZ3JhZGllbnRUcmFuc2Zvcm09InRyYW5zbGF0ZSgxNS45MzcgMTQuNDk5Mykgcm90YXRlKDQ1LjMxODEpIHNjYWxlKDI2LjU4NDMgNTAuMjI5MSkiIGdyYWRpZW50VW5pdHM9InVzZXJTcGFjZU9uVXNlIiByPSIxIiBjeT0iMCIgY3g9IjAiIGlkPSJwYWludDVfcmFkaWFsXzI2MjJfMzkxMCI+JiN4YTs8c3RvcCBzdG9wLWNvbG9yPSIjMDE5NUZGIi8+JiN4YTs8c3RvcCBzdG9wLWNvbG9yPSIjMTE0N0U5IiBvZmZzZXQ9IjEiLz4mI3hhOzwvcmFkaWFsR3JhZGllbnQ+JiN4YTs8cmFkaWFsR3JhZGllbnQgZ3JhZGllbnRUcmFuc2Zvcm09InRyYW5zbGF0ZSgxNS45MzcgMTQuNDk5Mykgcm90YXRlKDQ1LjMxODEpIHNjYWxlKDI2LjU4NDMgNTAuMjI5MSkiIGdyYWRpZW50VW5pdHM9InVzZXJTcGFjZU9uVXNlIiByPSIxIiBjeT0iMCIgY3g9IjAiIGlkPSJwYWludDZfcmFkaWFsXzI2MjJfMzkxMCI+JiN4YTs8c3RvcCBzdG9wLWNvbG9yPSIjMDE5NUZGIi8+JiN4YTs8c3RvcCBzdG9wLWNvbG9yPSIjMTE0N0U5IiBvZmZzZXQ9IjEiLz4mI3hhOzwvcmFkaWFsR3JhZGllbnQ+JiN4YTs8cmFkaWFsR3JhZGllbnQgZ3JhZGllbnRUcmFuc2Zvcm09InRyYW5zbGF0ZSgxNS45MzcgMTQuNDk5Mykgcm90YXRlKDQ1LjMxODEpIHNjYWxlKDI2LjU4NDMgNTAuMjI5MSkiIGdyYWRpZW50VW5pdHM9InVzZXJTcGFjZU9uVXNlIiByPSIxIiBjeT0iMCIgY3g9IjAiIGlkPSJwYWludDdfcmFkaWFsXzI2MjJfMzkxMCI+JiN4YTs8c3RvcCBzdG9wLWNvbG9yPSIjMDE5NUZGIi8+JiN4YTs8c3RvcCBzdG9wLWNvbG9yPSIjMTE0N0U5IiBvZmZzZXQ9IjEiLz4mI3hhOzwvcmFkaWFsR3JhZGllbnQ+JiN4YTs8cmFkaWFsR3JhZGllbnQgZ3JhZGllbnRUcmFuc2Zvcm09InRyYW5zbGF0ZSgxNS45MzA5IDE0LjU5NjYpIHJvdGF0ZSg0NSkgc2NhbGUoMjYuNTk3OCAyNC4yMzc2KSIgZ3JhZGllbnRVbml0cz0idXNlclNwYWNlT25Vc2UiIHI9IjEiIGN5PSIwIiBjeD0iMCIgaWQ9InBhaW50OF9yYWRpYWxfMjYyMl8zOTEwIj4mI3hhOzxzdG9wIHN0b3AtY29sb3I9IiMxMzQ4RkYiLz4mI3hhOzxzdG9wIHN0b3AtY29sb3I9IiMwNjIzOEQiIG9mZnNldD0iMSIvPiYjeGE7PC9yYWRpYWxHcmFkaWVudD4mI3hhOzxyYWRpYWxHcmFkaWVudCBncmFkaWVudFRyYW5zZm9ybT0idHJhbnNsYXRlKDE1LjkzNyAxNC40OTkzKSByb3RhdGUoNDUuMzE4MSkgc2NhbGUoMjYuNTg0MyA1MC4yMjkxKSIgZ3JhZGllbnRVbml0cz0idXNlclNwYWNlT25Vc2UiIHI9IjEiIGN5PSIwIiBjeD0iMCIgaWQ9InBhaW50OV9yYWRpYWxfMjYyMl8zOTEwIj4mI3hhOzxzdG9wIHN0b3AtY29sb3I9IiMwMTk1RkYiLz4mI3hhOzxzdG9wIHN0b3AtY29sb3I9IiMxMTQ3RTkiIG9mZnNldD0iMSIvPiYjeGE7PC9yYWRpYWxHcmFkaWVudD4mI3hhOzxyYWRpYWxHcmFkaWVudCBncmFkaWVudFRyYW5zZm9ybT0idHJhbnNsYXRlKDE1LjkzMDkgMTQuNTk2Nikgcm90YXRlKDQ1KSBzY2FsZSgyNi41OTc4IDI0LjIzNzYpIiBncmFkaWVudFVuaXRzPSJ1c2VyU3BhY2VPblVzZSIgcj0iMSIgY3k9IjAiIGN4PSIwIiBpZD0icGFpbnQxMF9yYWRpYWxfMjYyMl8zOTEwIj4mI3hhOzxzdG9wIHN0b3AtY29sb3I9IiMxMzQ4RkYiLz4mI3hhOzxzdG9wIHN0b3AtY29sb3I9IiMwNjIzOEQiIG9mZnNldD0iMSIvPiYjeGE7PC9yYWRpYWxHcmFkaWVudD4mI3hhOzxyYWRpYWxHcmFkaWVudCBncmFkaWVudFRyYW5zZm9ybT0idHJhbnNsYXRlKDE1LjkzMDkgMTQuNTk2Nikgcm90YXRlKDQ1KSBzY2FsZSgyNi41OTc4IDI0LjIzNzYpIiBncmFkaWVudFVuaXRzPSJ1c2VyU3BhY2VPblVzZSIgcj0iMSIgY3k9IjAiIGN4PSIwIiBpZD0icGFpbnQxMV9yYWRpYWxfMjYyMl8zOTEwIj4mI3hhOzxzdG9wIHN0b3AtY29sb3I9IiMxMzQ4RkYiLz4mI3hhOzxzdG9wIHN0b3AtY29sb3I9IiMwNjIzOEQiIG9mZnNldD0iMSIvPiYjeGE7PC9yYWRpYWxHcmFkaWVudD4mI3hhOzxyYWRpYWxHcmFkaWVudCBncmFkaWVudFRyYW5zZm9ybT0idHJhbnNsYXRlKDE1LjkzMDkgMTQuNTk2Nikgcm90YXRlKDQ1KSBzY2FsZSgyNi41OTc4IDI0LjIzNzYpIiBncmFkaWVudFVuaXRzPSJ1c2VyU3BhY2VPblVzZSIgcj0iMSIgY3k9IjAiIGN4PSIwIiBpZD0icGFpbnQxMl9yYWRpYWxfMjYyMl8zOTEwIj4mI3hhOzxzdG9wIHN0b3AtY29sb3I9IiMxMzQ4RkYiLz4mI3hhOzxzdG9wIHN0b3AtY29sb3I9IiMwNjIzOEQiIG9mZnNldD0iMSIvPiYjeGE7PC9yYWRpYWxHcmFkaWVudD4mI3hhOzxyYWRpYWxHcmFkaWVudCBncmFkaWVudFRyYW5zZm9ybT0idHJhbnNsYXRlKDE1LjkzMDkgMTQuNTk2Nikgcm90YXRlKDQ1KSBzY2FsZSgyNi41OTc4IDI0LjIzNzYpIiBncmFkaWVudFVuaXRzPSJ1c2VyU3BhY2VPblVzZSIgcj0iMSIgY3k9IjAiIGN4PSIwIiBpZD0icGFpbnQxM19yYWRpYWxfMjYyMl8zOTEwIj4mI3hhOzxzdG9wIHN0b3AtY29sb3I9IiMxMzQ4RkYiLz4mI3hhOzxzdG9wIHN0b3AtY29sb3I9IiMwNjIzOEQiIG9mZnNldD0iMSIvPiYjeGE7PC9yYWRpYWxHcmFkaWVudD4mI3hhOzxjbGlwUGF0aCBpZD0iY2xpcDBfMjYyMl8zOTEwIj4mI3hhOzxyZWN0IHRyYW5zZm9ybT0idHJhbnNsYXRlKDAuNSAwLjAzNDkxMjEpIiBmaWxsPSJ3aGl0ZSIgaGVpZ2h0PSI0OCIgd2lkdGg9IjQ4Ii8+JiN4YTs8L2NsaXBQYXRoPiYjeGE7PC9kZWZzPiYjeGE7PC9zdmc+;points=[[0,0,0,0,0],[0,0.25,0,0,0],[0,0.5,0,0,0],[0,0.75,0,0,0],[0.25,0,0,0,0],[0.5,0,0,0,0],[0.75,0,0,0,0],[1,0,0,0,0],[1,0.25,0,0,0],[1,0.5,0,0,0],[1,0.75,0,0,0]];" parent="cN5y4G9h1jpa3G24g_gX-14" vertex="1">
          <mxGeometry x="4" width="33" height="33" as="geometry" />
        </mxCell>
        <mxCell id="cN5y4G9h1jpa3G24g_gX-17" value="&lt;div&gt;&lt;br&gt;&lt;/div&gt;Data Product Generator" style="rounded=1;whiteSpace=wrap;html=1;strokeColor=#0070F2;fillColor=#EBF8FF;arcSize=24;absoluteArcSize=1;imageWidth=64;imageHeight=64;strokeWidth=1.5;fontStyle=1;verticalAlign=top;" parent="cN5y4G9h1jpa3G24g_gX-3" vertex="1">
          <mxGeometry x="55" y="179" width="207" height="362" as="geometry" />
        </mxCell>
        <mxCell id="cN5y4G9h1jpa3G24g_gX-18" value="" style="group" parent="cN5y4G9h1jpa3G24g_gX-3" vertex="1" connectable="0">
          <mxGeometry x="447.78" y="160" width="261" height="299" as="geometry" />
        </mxCell>
        <mxCell id="cN5y4G9h1jpa3G24g_gX-19" value="" style="rounded=1;whiteSpace=wrap;html=1;strokeColor=#0070F2;fillColor=#ffffff;arcSize=24;absoluteArcSize=1;imageWidth=64;imageHeight=64;strokeWidth=1.5;" parent="cN5y4G9h1jpa3G24g_gX-18" vertex="1">
          <mxGeometry width="261" height="299" as="geometry" />
        </mxCell>
        <mxCell id="cN5y4G9h1jpa3G24g_gX-20" value="&lt;font face=&quot;arial&quot; color=&quot;#1d2d3e&quot;&gt;&lt;span style=&quot;font-size: 14px;&quot;&gt;&lt;b&gt;SPACE - BW/4HANA&lt;/b&gt;&lt;/span&gt;&lt;/font&gt;" style="text;html=1;align=left;verticalAlign=middle;resizable=0;points=[];autosize=1;strokeColor=none;fillColor=none;fontSize=12;fontColor=default;fontFamily=Helvetica;" parent="cN5y4G9h1jpa3G24g_gX-18" vertex="1">
          <mxGeometry x="8.748603351955309" y="10.364545454545432" width="153" height="29" as="geometry" />
        </mxCell>
        <mxCell id="cN5y4G9h1jpa3G24g_gX-21" value="&lt;b&gt;Base Data Product&lt;/b&gt;&lt;div&gt;&lt;b&gt;Monthly Actual&lt;br&gt;(DSP Table)&lt;/b&gt;&lt;/div&gt;" style="rounded=1;whiteSpace=wrap;html=1;strokeColor=#F5FAE5;fillColor=#F5FAE5;arcSize=24;absoluteArcSize=1;imageWidth=64;imageHeight=64;strokeWidth=1;" parent="cN5y4G9h1jpa3G24g_gX-18" vertex="1">
          <mxGeometry x="30" y="210" width="201" height="73" as="geometry" />
        </mxCell>
        <mxCell id="cN5y4G9h1jpa3G24g_gX-22" value="&lt;b&gt;Base Data Product&lt;/b&gt;&lt;div&gt;&lt;b&gt;Yearly Actual&lt;/b&gt;&lt;/div&gt;&lt;div&gt;&lt;b&gt;(DSP Table)&lt;/b&gt;&lt;/div&gt;" style="rounded=1;whiteSpace=wrap;html=1;strokeColor=#F5FAE5;fillColor=#F5FAE5;arcSize=24;absoluteArcSize=1;imageWidth=64;imageHeight=64;strokeWidth=1;" parent="cN5y4G9h1jpa3G24g_gX-18" vertex="1">
          <mxGeometry x="30" y="108" width="199" height="73" as="geometry" />
        </mxCell>
        <mxCell id="cN5y4G9h1jpa3G24g_gX-24" value="Composite Provider&lt;br&gt;Yearly Actual" style="rounded=1;whiteSpace=wrap;html=1;strokeColor=#d6b656;fillColor=#fff2cc;arcSize=24;absoluteArcSize=1;imageWidth=64;imageHeight=64;strokeWidth=1.5;" parent="cN5y4G9h1jpa3G24g_gX-3" vertex="1">
          <mxGeometry x="78.5" y="325" width="160" height="40" as="geometry" />
        </mxCell>
        <mxCell id="cN5y4G9h1jpa3G24g_gX-25" value="InfoObject" style="rounded=1;whiteSpace=wrap;html=1;strokeColor=#475E75;fillColor=#F5F6F7;arcSize=24;absoluteArcSize=1;imageWidth=64;imageHeight=64;strokeWidth=1.5;" parent="cN5y4G9h1jpa3G24g_gX-3" vertex="1">
          <mxGeometry x="78.5" y="437" width="160" height="40" as="geometry" />
        </mxCell>
        <mxCell id="cN5y4G9h1jpa3G24g_gX-26" value="Analytics Query" style="rounded=1;whiteSpace=wrap;html=1;strokeColor=#d6b656;fillColor=#fff2cc;arcSize=24;absoluteArcSize=1;imageWidth=64;imageHeight=64;strokeWidth=1.5;" parent="cN5y4G9h1jpa3G24g_gX-3" vertex="1">
          <mxGeometry x="78.5" y="269" width="160" height="40" as="geometry" />
        </mxCell>
        <mxCell id="cN5y4G9h1jpa3G24g_gX-27" value="ADSO&lt;br&gt;Monthly Actual" style="rounded=1;whiteSpace=wrap;html=1;strokeColor=#d6b656;fillColor=#fff2cc;arcSize=24;absoluteArcSize=1;imageWidth=64;imageHeight=64;strokeWidth=1.5;" parent="cN5y4G9h1jpa3G24g_gX-3" vertex="1">
          <mxGeometry x="78.5" y="381" width="160" height="40" as="geometry" />
        </mxCell>
        <mxCell id="cN5y4G9h1jpa3G24g_gX-28" value="" style="group" parent="cN5y4G9h1jpa3G24g_gX-3" vertex="1" connectable="0">
          <mxGeometry x="769.78" y="161" width="261" height="301" as="geometry" />
        </mxCell>
        <mxCell id="cN5y4G9h1jpa3G24g_gX-29" value="" style="rounded=1;whiteSpace=wrap;html=1;strokeColor=#0070F2;fillColor=#ffffff;arcSize=24;absoluteArcSize=1;imageWidth=64;imageHeight=64;strokeWidth=1.5;" parent="cN5y4G9h1jpa3G24g_gX-28" vertex="1">
          <mxGeometry width="261" height="301" as="geometry" />
        </mxCell>
        <mxCell id="cN5y4G9h1jpa3G24g_gX-30" value="&lt;font face=&quot;arial&quot; color=&quot;#1d2d3e&quot;&gt;&lt;span style=&quot;font-size: 14px;&quot;&gt;&lt;b&gt;SPACE - Finance&lt;/b&gt;&lt;/span&gt;&lt;/font&gt;" style="text;html=1;align=left;verticalAlign=middle;resizable=0;points=[];autosize=1;strokeColor=none;fillColor=none;fontSize=12;fontColor=default;fontFamily=Helvetica;" parent="cN5y4G9h1jpa3G24g_gX-28" vertex="1">
          <mxGeometry x="7.748603351955309" y="4.433873517786539" width="131" height="29" as="geometry" />
        </mxCell>
        <mxCell id="cN5y4G9h1jpa3G24g_gX-31" value="&lt;b&gt;Custom Data Product&lt;/b&gt;&lt;div&gt;&lt;b&gt;Monthly Budget&lt;br&gt;(DSP Table - Excel Upload)&lt;/b&gt;&lt;/div&gt;" style="rounded=1;whiteSpace=wrap;html=1;strokeColor=#F5FAE5;fillColor=#DAE8FC;arcSize=24;absoluteArcSize=1;imageWidth=64;imageHeight=64;strokeWidth=1;" parent="cN5y4G9h1jpa3G24g_gX-28" vertex="1">
          <mxGeometry x="33" y="212" width="201" height="73" as="geometry" />
        </mxCell>
        <mxCell id="cN5y4G9h1jpa3G24g_gX-32" value="" style="group;fillColor=none;" parent="cN5y4G9h1jpa3G24g_gX-28" vertex="1" connectable="0">
          <mxGeometry x="33" y="70" width="205" height="126" as="geometry" />
        </mxCell>
        <mxCell id="cN5y4G9h1jpa3G24g_gX-33" value="&lt;b&gt;Derived Data Product&lt;/b&gt;&lt;div&gt;&lt;b&gt;&lt;br&gt;&lt;br&gt;&lt;br&gt;&lt;br&gt;&lt;br&gt;&lt;br&gt;&lt;/b&gt;&lt;/div&gt;" style="rounded=1;whiteSpace=wrap;html=1;fillColor=none;arcSize=24;absoluteArcSize=1;imageWidth=64;imageHeight=64;strokeWidth=1;" parent="cN5y4G9h1jpa3G24g_gX-32" vertex="1">
          <mxGeometry width="205" height="126" as="geometry" />
        </mxCell>
        <mxCell id="cN5y4G9h1jpa3G24g_gX-34" value="" style="group" parent="cN5y4G9h1jpa3G24g_gX-32" vertex="1" connectable="0">
          <mxGeometry x="16" y="43.38000000000011" width="173" height="74.25" as="geometry" />
        </mxCell>
        <mxCell id="cN5y4G9h1jpa3G24g_gX-35" value="View Act+Bud" style="rounded=1;whiteSpace=wrap;html=1;strokeColor=#0070F2;strokeWidth=1.5;arcSize=16;fillColor=#ffffff;perimeterSpacing=0;absoluteArcSize=1;container=0;" parent="cN5y4G9h1jpa3G24g_gX-34" vertex="1">
          <mxGeometry x="32" width="111" height="20" as="geometry" />
        </mxCell>
        <mxCell id="cN5y4G9h1jpa3G24g_gX-36" value="Actual" style="rounded=1;whiteSpace=wrap;html=1;strokeColor=#0070F2;strokeWidth=1.5;arcSize=16;fillColor=#ffffff;perimeterSpacing=0;absoluteArcSize=1;container=0;" parent="cN5y4G9h1jpa3G24g_gX-34" vertex="1">
          <mxGeometry y="54.25" width="80" height="20" as="geometry" />
        </mxCell>
        <mxCell id="cN5y4G9h1jpa3G24g_gX-37" value="Budget" style="rounded=1;whiteSpace=wrap;html=1;strokeColor=#0070F2;strokeWidth=1.5;arcSize=16;fillColor=#ffffff;perimeterSpacing=0;absoluteArcSize=1;container=0;" parent="cN5y4G9h1jpa3G24g_gX-34" vertex="1">
          <mxGeometry x="93" y="54.25" width="80" height="20" as="geometry" />
        </mxCell>
        <mxCell id="cN5y4G9h1jpa3G24g_gX-38" value="" style="endArrow=blockThin;html=1;strokeColor=#07838F;bendable=1;rounded=0;endFill=1;endSize=4;startArrow=none;startFill=0;startSize=4;jumpStyle=none;jumpSize=0;targetPerimeterSpacing=15;dashed=1;strokeWidth=1.5;dashPattern=1 4;entryX=0.5;entryY=1;entryDx=0;entryDy=0;" parent="cN5y4G9h1jpa3G24g_gX-34" target="cN5y4G9h1jpa3G24g_gX-35" edge="1">
          <mxGeometry width="50" height="50" relative="1" as="geometry">
            <mxPoint x="42" y="54.25" as="sourcePoint" />
            <mxPoint x="64" y="17.25" as="targetPoint" />
          </mxGeometry>
        </mxCell>
        <mxCell id="cN5y4G9h1jpa3G24g_gX-39" value="Join" style="edgeLabel;html=1;align=center;verticalAlign=middle;resizable=0;points=[];" parent="cN5y4G9h1jpa3G24g_gX-38" vertex="1" connectable="0">
          <mxGeometry x="-0.1721" relative="1" as="geometry">
            <mxPoint as="offset" />
          </mxGeometry>
        </mxCell>
        <mxCell id="cN5y4G9h1jpa3G24g_gX-40" value="" style="endArrow=blockThin;html=1;strokeColor=#07838F;bendable=1;rounded=0;endFill=1;endSize=4;startArrow=none;startFill=0;startSize=4;jumpStyle=none;jumpSize=0;targetPerimeterSpacing=15;dashed=1;strokeWidth=1.5;dashPattern=1 4;entryX=0.5;entryY=1;entryDx=0;entryDy=0;" parent="cN5y4G9h1jpa3G24g_gX-34" target="cN5y4G9h1jpa3G24g_gX-35" edge="1">
          <mxGeometry width="50" height="50" relative="1" as="geometry">
            <mxPoint x="139" y="50" as="sourcePoint" />
            <mxPoint x="116" y="20" as="targetPoint" />
          </mxGeometry>
        </mxCell>
        <mxCell id="cN5y4G9h1jpa3G24g_gX-41" value="Join" style="edgeLabel;html=1;align=center;verticalAlign=middle;resizable=0;points=[];" parent="cN5y4G9h1jpa3G24g_gX-40" vertex="1" connectable="0">
          <mxGeometry x="-0.1721" relative="1" as="geometry">
            <mxPoint as="offset" />
          </mxGeometry>
        </mxCell>
        <mxCell id="cN5y4G9h1jpa3G24g_gX-50" value="&lt;span style=&quot;caret-color: rgba(0, 0, 0, 0); color: rgba(0, 0, 0, 0); font-family: monospace; font-size: 0px; font-style: normal; font-variant-caps: normal; font-weight: 400; letter-spacing: normal; text-align: start; text-indent: 0px; text-transform: none; word-spacing: 0px; -webkit-text-stroke-width: 0px; background-color: rgb(248, 249, 250); text-decoration: none; float: none; display: inline !important;&quot;&gt;%3CmxGraphModel%3E%3Croot%3E%3CmxCell%20id%3D%220%22%2F%3E%3CmxCell%20id%3D%221%22%20parent%3D%220%22%2F%3E%3CmxCell%20id%3D%222%22%20value%3D%22%26lt%3Bp%20style%3D%26quot%3Bcaret-color%3A%20rgb(0%2C%200%2C%200)%3B%20color%3A%20rgb(0%2C%200%2C%200)%3B%20margin-top%3A%200pt%3B%20margin-bottom%3A%200pt%3B%20margin-left%3A%200in%3B%20direction%3A%20ltr%3B%20unicode-bidi%3A%20embed%3B%20word-break%3A%20normal%3B%26quot%3B%26gt%3B%26lt%3Bspan%20style%3D%26quot%3Bcolor%3A%20rgb(89%2C%2089%2C%2089)%3B%20font-size%3A%2016px%3B%20font-weight%3A%20700%3B%26quot%3B%26gt%3BSAP%20Data%20Warehouse%26amp%3Bnbsp%3BCloud%26lt%3B%2Fspan%26gt%3B%26lt%3Bbr%26gt%3B%26lt%3B%2Fp%26gt%3B%22%20style%3D%22rounded%3D0%3BwhiteSpace%3Dwrap%3Bhtml%3D1%3BstrokeColor%3D%23B3B3B3%3BstrokeWidth%3D2%3BfillColor%3Dnone%3Balign%3Dleft%3BverticalAlign%3Dtop%3BfontSize%3D11%3BfontFamily%3DArial%3Bcontainer%3D1%3BrecursiveResize%3D0%3Bcollapsible%3D0%3BfontColor%3D%23595959%3B%22%20vertex%3D%221%22%20parent%3D%221%22%3E%3CmxGeometry%20x%3D%22600%22%20y%3D%22560%22%20width%3D%22400%22%20height%3D%22435%22%20as%3D%22geometry%22%2F%3E%3C%2FmxCell%3E%3CmxCell%20id%3D%223%22%20style%3D%22edgeStyle%3Dnone%3Brounded%3D0%3BorthogonalLoop%3D1%3BjettySize%3Dauto%3Bhtml%3D1%3BentryX%3D0%3BentryY%3D0.5%3BentryDx%3D0%3BentryDy%3D0%3Bdashed%3D1%3BstartArrow%3Dclassic%3BstartFill%3D1%3BendArrow%3Dclassic%3BendFill%3D1%3BstrokeColor%3D%23C0399F%3BstrokeWidth%3D1%3BfontSize%3D16%3B%22%20edge%3D%221%22%20parent%3D%222%22%3E%3CmxGeometry%20relative%3D%221%22%20as%3D%22geometry%22%3E%3CmxPoint%20x%3D%22377%22%20y%3D%2277%22%20as%3D%22sourcePoint%22%2F%3E%3CmxPoint%20x%3D%22377%22%20y%3D%2277%22%20as%3D%22targetPoint%22%2F%3E%3C%2FmxGeometry%3E%3C%2FmxCell%3E" style="rounded=1;whiteSpace=wrap;html=1;strokeColor=#0070F2;strokeWidth=2;fillColor=default;align=left;verticalAlign=top;fontSize=11;fontFamily=Arial;container=0;recursiveResize=0;collapsible=0;fontColor=#595959;arcSize=3;" parent="cN5y4G9h1jpa3G24g_gX-3" vertex="1">
          <mxGeometry x="390" width="686.23" height="77" as="geometry" />
        </mxCell>
        <mxCell id="cN5y4G9h1jpa3G24g_gX-51" value="" style="group" parent="cN5y4G9h1jpa3G24g_gX-3" vertex="1" connectable="0">
          <mxGeometry x="407.25" y="20" width="214.68000000000006" height="34.06" as="geometry" />
        </mxCell>
        <mxCell id="cN5y4G9h1jpa3G24g_gX-52" value="&lt;b style=&quot;font-size: 14px;&quot;&gt;SAP Analytics Cloud&lt;/b&gt;" style="text;html=1;strokeColor=none;fillColor=none;align=center;verticalAlign=middle;whiteSpace=wrap;rounded=0;fontSize=14;fontColor=#000000;opacity=0;container=0;" parent="cN5y4G9h1jpa3G24g_gX-51" vertex="1">
          <mxGeometry x="21.06000000000006" y="2.0299999999999727" width="193.62" height="30" as="geometry" />
        </mxCell>
        <mxCell id="cN5y4G9h1jpa3G24g_gX-53" value="" style="shape=image;verticalLabelPosition=bottom;labelBackgroundColor=default;verticalAlign=top;aspect=fixed;imageAspect=0;image=data:image/svg+xml,PHN2ZyB4bWxucz0iaHR0cDovL3d3dy53My5vcmcvMjAwMC9zdmciIGZpbGw9Im5vbmUiIHZpZXdCb3g9IjAgMCA0OCA0OCIgaGVpZ2h0PSI0OCIgd2lkdGg9IjQ4Ij4mI3hhOzxnIGNsaXAtcGF0aD0idXJsKCNjbGlwMF8zMTY5Xzk0MDQpIj4mI3hhOzxjaXJjbGUgc3Ryb2tlLXdpZHRoPSIwLjg1NzE0MiIgc3Ryb2tlPSIjRDVEQUREIiBmaWxsPSJ1cmwoI3BhaW50MF9saW5lYXJfMzE2OV85NDA0KSIgcj0iMjMuNTcxNCIgY3k9IjI0LjI0OSIgY3g9IjI0Ii8+JiN4YTs8ZyBjbGlwLXBhdGg9InVybCgjY2xpcDFfMzE2OV85NDA0KSI+JiN4YTs8cGF0aCBzdHJva2Utd2lkdGg9IjIuNyIgc3Ryb2tlPSJ1cmwoI3BhaW50MV9saW5lYXJfMzE2OV85NDA0KSIgZD0iTTE5LjMxMjEgMTIuNzkxOEMyMC45NjI2IDEyLjEwMTUgMjIuNzM5MSAxMS43ODY3IDI0LjUxNDIgMTEuODYxOUMyNC41MzcgMTEuODYyOCAyNC41NDc2IDExLjg2NzcgMjQuNTUzOSAxMS44NzExQzI0LjU2MjEgMTEuODc1NiAyNC41NzYyIDExLjg4NTggMjQuNTkxOSAxMS45MDY5QzI0LjYyNTMgMTEuOTUxOSAyNC42NTI4IDEyLjAzMDggMjQuNjM2MyAxMi4xMjg2TDIyLjg5NzUgMjIuNDIyM0MyMi42NTc4IDIzLjg0MTcgMjMuNDQ3MiAyNS4yMzQ0IDI0Ljc4ODEgMjUuNzU3OEwzNC41MTMgMjkuNTUzOEMzNC42MDU0IDI5LjU4OTkgMzQuNjU4OSAyOS42NTQxIDM0LjY4MDQgMjkuNzA1OEMzNC42OTA1IDI5LjczMDEgMzQuNjkyIDI5Ljc0NzQgMzQuNjkxNiAyOS43NTY4QzM0LjY5MTQgMjkuNzY0IDM0LjY5MDEgMjkuNzc1NiAzNC42NzkyIDI5Ljc5NTZDMzMuODMxOCAzMS4zNTcyIDMyLjY0OTEgMzIuNzE5NyAzMS4yMDkxIDMzLjc4MTFDMjkuMzU5OSAzNS4xNDQxIDI3LjE2MjMgMzUuOTU1IDI0Ljg3MTEgMzYuMTE5N0MyMi41Nzk4IDM2LjI4NDQgMjAuMjg4OCAzNS43OTYxIDE4LjI2MzcgMzQuNzExNkMxNi4yMzg3IDMzLjYyNzEgMTQuNTYyNiAzMS45OTA3IDEzLjQyOTkgMjkuOTkyMkMxMi4yOTcxIDI3Ljk5MzcgMTEuNzU0MSAyNS43MTUxIDExLjg2MzkgMjMuNDIwNUMxMS45NzM2IDIxLjEyNiAxMi43MzE2IDE4LjkwOTYgMTQuMDQ5OSAxNy4wMjgzQzE1LjM2ODIgMTUuMTQ3MSAxNy4xOTI4IDEzLjY3ODEgMTkuMzEyMSAxMi43OTE4WiIvPiYjeGE7PHBhdGggZmlsbD0idXJsKCNwYWludDJfbGluZWFyXzMxNjlfOTQwNCkiIGQ9Ik0zNS4zODc4IDI1LjM4MjlDMzYuMzc3OCAyNS43NjQ0IDM3LjQ3NjQgMjUuMTQ0OSAzNy40OTc2IDI0LjA4NDFDMzcuNTA1NiAyMy42ODA3IDM3LjQ5NSAyMy4yNzY0IDM3LjQ2NTYgMjIuODcyM0MzNy4zMjIgMjAuODk5IDM2LjczMzIgMTguOTgyIDM1Ljc0MjEgMTcuMjYxM0MzNC43NTEgMTUuNTQwNSAzMy4zODI3IDE0LjA1OTIgMzEuNzM2OCAxMi45MjU0QzMxLjM5NjYgMTIuNjkxMSAzMS4wNDYzIDEyLjQ3MjggMzAuNjg3MiAxMi4yNzExQzI5Ljc2MTUgMTEuNzUxMiAyOC42NjY4IDEyLjM3OTIgMjguNDg5IDEzLjQyNTlMMjcuMjM3OCAyMC43OTIzQzI3LjEwMzQgMjEuNTgzOSAyNy41NDU0IDIyLjM2MDcgMjguMjk0NyAyMi42NDk1TDM1LjM4NzggMjUuMzgyOVoiIGNsaXAtcnVsZT0iZXZlbm9kZCIgZmlsbC1ydWxlPSJldmVub2RkIi8+JiN4YTs8L2c+JiN4YTs8L2c+JiN4YTs8ZGVmcz4mI3hhOzxsaW5lYXJHcmFkaWVudCBncmFkaWVudFVuaXRzPSJ1c2VyU3BhY2VPblVzZSIgeTI9IjQ0LjQ5MzMiIHgyPSI0MS4wNjQ0IiB5MT0iNy4wNjE4NiIgeDE9IjQuMzUyODYiIGlkPSJwYWludDBfbGluZWFyXzMxNjlfOTQwNCI+JiN4YTs8c3RvcCBzdG9wLWNvbG9yPSJ3aGl0ZSIvPiYjeGE7PHN0b3Agc3RvcC1jb2xvcj0iI0VBRUNFRSIgb2Zmc2V0PSIxIi8+JiN4YTs8L2xpbmVhckdyYWRpZW50PiYjeGE7PGxpbmVhckdyYWRpZW50IGdyYWRpZW50VW5pdHM9InVzZXJTcGFjZU9uVXNlIiB5Mj0iMzIuNDAxOSIgeDI9IjMzLjIwNTMiIHkxPSIxNC41Mzg3IiB4MT0iMTQuMzI4OCIgaWQ9InBhaW50MV9saW5lYXJfMzE2OV85NDA0Ij4mI3hhOzxzdG9wIHN0b3AtY29sb3I9IiMwMTk1RkYiLz4mI3hhOzxzdG9wIHN0b3AtY29sb3I9IiMxMTQ3RTkiIG9mZnNldD0iMC45OTEwMjgiLz4mI3hhOzwvbGluZWFyR3JhZGllbnQ+JiN4YTs8bGluZWFyR3JhZGllbnQgZ3JhZGllbnRVbml0cz0idXNlclNwYWNlT25Vc2UiIHkyPSIyMS4wNDg1IiB4Mj0iMzcuODA5NyIgeTE9IjE0LjA1OCIgeDE9IjI4LjczNDYiIGlkPSJwYWludDJfbGluZWFyXzMxNjlfOTQwNCI+JiN4YTs8c3RvcCBzdG9wLWNvbG9yPSIjMTM0OEZGIi8+JiN4YTs8c3RvcCBzdG9wLWNvbG9yPSIjMDYyMzhEIiBvZmZzZXQ9IjEiLz4mI3hhOzwvbGluZWFyR3JhZGllbnQ+JiN4YTs8Y2xpcFBhdGggaWQ9ImNsaXAwXzMxNjlfOTQwNCI+JiN4YTs8cmVjdCB0cmFuc2Zvcm09InRyYW5zbGF0ZSgwIDAuMDAwOTc2NTYyKSIgZmlsbD0id2hpdGUiIGhlaWdodD0iNDgiIHdpZHRoPSI0OCIvPiYjeGE7PC9jbGlwUGF0aD4mI3hhOzxjbGlwUGF0aCBpZD0iY2xpcDFfMzE2OV85NDA0Ij4mI3hhOzxyZWN0IHRyYW5zZm9ybT0idHJhbnNsYXRlKDEwLjUgMTAuNTAxKSIgZmlsbD0id2hpdGUiIGhlaWdodD0iMjciIHdpZHRoPSIyNyIvPiYjeGE7PC9jbGlwUGF0aD4mI3hhOzwvZGVmcz4mI3hhOzwvc3ZnPg==;" parent="cN5y4G9h1jpa3G24g_gX-51" vertex="1">
          <mxGeometry width="34.06" height="34.06" as="geometry" />
        </mxCell>
        <mxCell id="cN5y4G9h1jpa3G24g_gX-54" value="" style="group" parent="cN5y4G9h1jpa3G24g_gX-3" vertex="1" connectable="0">
          <mxGeometry x="660" y="15" width="400" height="51" as="geometry" />
        </mxCell>
        <mxCell id="cN5y4G9h1jpa3G24g_gX-55" value="" style="rounded=1;whiteSpace=wrap;html=1;strokeColor=#0070F2;fillColor=#ffffff;arcSize=24;absoluteArcSize=1;imageWidth=64;imageHeight=64;strokeWidth=1.5;dashed=1;dashPattern=8 8;" parent="cN5y4G9h1jpa3G24g_gX-54" vertex="1">
          <mxGeometry x="63.259574468085106" width="336.7404255319149" height="51" as="geometry" />
        </mxCell>
        <mxCell id="cN5y4G9h1jpa3G24g_gX-56" value="&lt;font face=&quot;arial&quot; color=&quot;#1d2d3e&quot;&gt;&lt;span style=&quot;font-size: 14px;&quot;&gt;&lt;b&gt;Folder (Finance Team)&lt;/b&gt;&lt;/span&gt;&lt;/font&gt;" style="text;html=1;align=left;verticalAlign=middle;resizable=0;points=[];autosize=1;strokeColor=none;fillColor=none;fontSize=12;fontColor=default;fontFamily=Helvetica;" parent="cN5y4G9h1jpa3G24g_gX-54" vertex="1">
          <mxGeometry x="72.02690693519571" width="166" height="29" as="geometry" />
        </mxCell>
        <mxCell id="cN5y4G9h1jpa3G24g_gX-57" value="SAC Story" style="rounded=1;whiteSpace=wrap;html=1;strokeColor=#0070F2;strokeWidth=1.5;arcSize=16;fillColor=#ffffff;perimeterSpacing=0;absoluteArcSize=1;" parent="cN5y4G9h1jpa3G24g_gX-54" vertex="1">
          <mxGeometry x="218.9392993340913" y="19" width="78.0227058632451" height="20" as="geometry" />
        </mxCell>
        <mxCell id="cN5y4G9h1jpa3G24g_gX-58" value="Insight Apps" style="rounded=1;whiteSpace=wrap;html=1;strokeColor=#0070F2;strokeWidth=1.5;arcSize=16;fillColor=#ffffff;perimeterSpacing=0;absoluteArcSize=1;" parent="cN5y4G9h1jpa3G24g_gX-54" vertex="1">
          <mxGeometry x="304.0449027123599" y="19" width="78.0227058632451" height="20" as="geometry" />
        </mxCell>
        <mxCell id="cN5y4G9h1jpa3G24g_gX-59" value="&lt;font size=&quot;1&quot; color=&quot;#475f75&quot;&gt;&lt;b&gt;Data Product Generator&lt;/b&gt;&lt;/font&gt;" style="rounded=1;whiteSpace=wrap;html=1;arcSize=50;strokeColor=#475f75;fillColor=#f5f6f7;fontColor=#266f3a;strokeWidth=1.5;" parent="cN5y4G9h1jpa3G24g_gX-3" vertex="1">
          <mxGeometry x="285.79" y="514" width="123.99" height="16" as="geometry" />
        </mxCell>
        <mxCell id="cN5y4G9h1jpa3G24g_gX-62" value="&lt;p style=&quot;line-height: 114%;&quot;&gt;&lt;font color=&quot;#188918&quot; size=&quot;1&quot;&gt;&lt;b style=&quot;&quot;&gt;Cross Space Share&lt;/b&gt;&lt;/font&gt;&lt;/p&gt;" style="rounded=1;whiteSpace=wrap;html=1;arcSize=50;strokeColor=#188918;fillColor=#f5fae5;fontColor=#266f3a;strokeWidth=1.5;" parent="cN5y4G9h1jpa3G24g_gX-3" vertex="1">
          <mxGeometry x="685.5" y="336" width="107" height="16" as="geometry" />
        </mxCell>
        <mxCell id="cN5y4G9h1jpa3G24g_gX-63" value="&lt;font size=&quot;1&quot; color=&quot;#475f75&quot;&gt;&lt;b&gt;Apache Spark&lt;/b&gt;&lt;/font&gt;" style="rounded=1;whiteSpace=wrap;html=1;arcSize=50;strokeColor=#475f75;fillColor=default;strokeWidth=1.5;" parent="cN5y4G9h1jpa3G24g_gX-3" vertex="1">
          <mxGeometry x="640" y="550" width="226" height="37" as="geometry" />
        </mxCell>
        <mxCell id="cN5y4G9h1jpa3G24g_gX-67" value="" style="shape=image;verticalLabelPosition=bottom;labelBackgroundColor=default;verticalAlign=top;aspect=fixed;imageAspect=0;editableCssRules=.*;image=data:image/svg+xml,PHN2ZyB4bWxucz0iaHR0cDovL3d3dy53My5vcmcvMjAwMC9zdmciIGZpbGw9Im5vbmUiIHZpZXdCb3g9Ii0wLjAwMDQ4Mzc3NjAwMDk3NjU3MTI1IC0wLjAwMjE5MzcxNDA1MDI5Mjk3NzUgMTUuOTk5NjI3NjM5NTg3NDAyIDE1Ljk5OTYyNzYzOTU4NzQwMiIgaGVpZ2h0PSIxNS45OTk2Mjc2Mzk1ODc0MDIiIHdpZHRoPSIxNS45OTk2Mjc2Mzk1ODc0MDIiPiYjeGE7PGNpcmNsZSBzdHJva2Utd2lkdGg9IjAuMjg1NzA4IiBzdHJva2U9IiNENURBREQiIGZpbGw9InVybCgjcGFpbnQwX2xpbmVhcl82NDcxXzI1NjY1KSIgcj0iNy44NTY5NiIgY3k9IjcuOTk3NjIiIGN4PSI3Ljk5OTMzIi8+JiN4YTs8ZyBjbGlwLXBhdGg9InVybCgjY2xpcDBfNjQ3MV8yNTY2NSkiPiYjeGE7PHBhdGggZmlsbD0idXJsKCNwYWludDFfbGluZWFyXzY0NzFfMjU2NjUpIiBkPSJNMTAuNDQwNyA3LjI3ODg2QzEwLjY0MzIgNi42ODM4NCAxMC45MDgyIDYuNDE4ODIgMTEuNTAzMiA2LjIxNjMxQzExLjY3NTcgNi4xNTYzMSAxMS42NzU3IDUuOTA4OCAxMS41MDMyIDUuODUxM0MxMC45MDgyIDUuNjQ4NzkgMTAuNjQzMiA1LjM4Mzc3IDEwLjQ0MDcgNC43ODg3NEMxMC4zODMyIDQuNjE2MjQgMTAuMTM1NyA0LjYxNjI0IDEwLjA3ODIgNC43ODg3NEM5Ljg3NTY1IDUuMzgzNzcgOS42MTA2NCA1LjY0ODc5IDkuMDE1NjEgNS44NTEzQzguODQzMSA1LjkxMTMgOC44NDMxIDYuMTU4ODEgOS4wMTU2MSA2LjIxNjMxQzkuNjEwNjQgNi40MTg4MiA5Ljg3NTY1IDYuNjgzODQgMTAuMDc4MiA3LjI3ODg2QzEwLjEzNTcgNy40NTEzNyAxMC4zODMyIDcuNDUxMzcgMTAuNDQwNyA3LjI3ODg2WiIvPiYjeGE7PHBhdGggZmlsbD0idXJsKCNwYWludDJfbGluZWFyXzY0NzFfMjU2NjUpIiBkPSJNMTEuNzQ2NyA1LjE1MTc4QzExLjg3MzggNC43NzYxNSAxMi4wNDE0IDQuNjA4NTYgMTIuNDE3IDQuNDgxNDJDMTIuNTI2OCA0LjQ0Mzg2IDEyLjUyNjggNC4yODc4MyAxMi40MTcgNC4yNTAyNkMxMi4wNDE0IDQuMTIzMTMgMTEuODczOCAzLjk1NTU0IDExLjc0NjcgMy41Nzk5MUMxMS43MDkxIDMuNDcwMTEgMTEuNTU2IDMuNDcwMTEgMTEuNTE4NCAzLjU3OTkxQzExLjM5MTMgMy45NTU1NCAxMS4yMjM3IDQuMTIzMTMgMTAuODQ4MSA0LjI1MDI2QzEwLjczODMgNC4yODc4MyAxMC43MzgzIDQuNDQzODYgMTAuODQ4MSA0LjQ4MTQyQzExLjIyMzcgNC42MDg1NiAxMS4zOTEzIDQuNzc2MTUgMTEuNTE4NCA1LjE1MTc4QzExLjU1NiA1LjI2MTU4IDExLjcwOTEgNS4yNjE1OCAxMS43NDY3IDUuMTUxNzhaIi8+JiN4YTs8cGF0aCBmaWxsPSJ1cmwoI3BhaW50M19saW5lYXJfNjQ3MV8yNTY2NSkiIGQ9Ik03Ljk0Mzc3IDQuMzY1OTdDOC40NDE2OCA0LjM2NTk3IDguODgxOTkgNC40OTcxNiA5LjI1MzY0IDQuNzM0QzkuMjA4MzggNC44Mjg3NiA5LjE2OTMyIDQuODc4MzkgOS4xMzc0IDQuOTEwMzFDOS4wODgxMyA0Ljk1OTU4IDguOTk2NjMgNS4wMjU4OCA4Ljc2MjA1IDUuMTA1NzFMOC43NTcwNyA1LjEwNzQ0QzcuODk1NjUgNS40MDcwNyA3Ljg2MTIyIDYuNjU4NTYgOC43NjM2IDYuOTYyMjlDOC45OTcwMyA3LjA0MTg5IDkuMDg4MjQgNy4xMDgwMiA5LjEzNzQgNy4xNTcxOEM5LjE4NjU3IDcuMjA2MzQgOS4yNTI3MSA3LjI5NzU2IDkuMzMyMzEgNy41MzEwMkM5LjYzMDcyIDguNDE3MjQgMTAuODg4NSA4LjQxNzI0IDExLjE4NjkgNy41MzEwMkMxMS4yNjY1IDcuMjk3NTYgMTEuMzMyNiA3LjIwNjM0IDExLjM4MTggNy4xNTcxOEMxMS40MzEgNy4xMDc5MSAxMS41MjI2IDcuMDQxNTkgMTEuNzU3MSA2Ljk2MTc2TDExLjc2MjEgNi45NjAwNEMxMS44Mzc0IDYuOTMzODUgMTEuOTA2NCA2LjkwMDM3IDExLjk2OSA2Ljg2MDg5QzEyLjI5NDEgNy4yNDczNiAxMi40OTk1IDcuNzY2NjEgMTIuNDk5NSA4LjM2NjE1QzEyLjQ5OTUgOS43OTY3OCAxMS4zNzQ1IDEwLjY1NzkgMTAuMTU3MiAxMC41ODI4SDkuNTYxMjNWOS4yMDcyQzkuNTUxMzQgOC45MDExOCA5LjM4NjU1IDguNjE2MzIgOS4xMTIyOCA4LjQ1ODdMOS4xMTgwNiA4LjQ1NTI2TDcuMzYzMjkgNy40NDAzOEw3LjM1OTIxIDcuNDM4MDlDNy4wODg1NSA3LjI4NjUzIDYuNzQ2NzEgNy4yNzk1OSA2LjQ2NTAyIDcuNDQzNTJMNi40NjQyMiA3LjQ0Mzk5TDUuNjEzMyA3LjkzNzk2TDUuNjA5NjEgNy45MzU3N0w0LjcyMzYgOC40NTE4NUM0LjQ0MjY3IDguNjEyMyA0LjI4MDkxIDguOTA1MzcgNC4yNzI4MiA5LjIwNzM4TDQuMjcyNjUgMTAuMzIzM0MzLjc2MDg2IDEwLjAxOTQgMy40OTk1MSA5LjQ3MTA5IDMuNDk5NTEgOC43OTkxM0MzLjQ5OTUxIDcuNzA3ODIgNC4yOTY1OSA2Ljg0NjU1IDUuNTI2OTkgNy4wNjA1M0M1LjQyOTc2IDUuNzY4NzkgNi40NjQ5MSA0LjM2NTk3IDcuOTQzNzcgNC4zNjU5N1oiLz4mI3hhOzxwYXRoIGZpbGw9InVybCgjcGFpbnQ0X2xpbmVhcl82NDcxXzI1NjY1KSIgZD0iTTYuOTE2NjMgOS41MDEzMUw3LjU5MTg0IDkuOTAzNjJWMTAuNjA5OEw2LjkxNjYzIDExLjAwMDhMNi4yNDE0MiAxMC42MDk4VjkuOTAzNjJMNi45MTY2MyA5LjUwMTMxWk02LjkxNjYzIDguOTc4MDJMNy43ODMxNSA4LjQ2MzE3TDcuMDI5MTYgOC4wMjcxQzYuOTU4ODMgNy45ODc3MSA2Ljg3MTYxIDcuOTg3NzEgNi44MDQwOSA4LjAyNzFMNi4wNTI5MiA4LjQ2MzE3TDYuOTE5NDQgOC45NzgwMkg2LjkxNjYzWk03LjM1ODMzIDkuMjM5NjZMNy45MzIyNiA5LjU4Mjg5QzcuOTk5NzggOS42MjIyOCA4LjA0MTk4IDkuNjk4MjQgOC4wNDE5OCA5Ljc3NzAyVjEwLjM1MDlMOC44ODU5OSA5Ljg2MTQyVjkuMjM2ODVDOC44ODU5OSA5LjE1NTI2IDguODQzNzkgOS4wODIxMSA4Ljc3MzQ1IDkuMDQyNzNMOC4yMjc2NiA4LjcyNDgyTDcuMzU4MzMgOS4yNDI0OFY5LjIzOTY2Wk03LjU5MTg0IDExLjEzMDNMNy4wMjkxNiAxMS40NTY2QzcuMDI5MTYgMTEuNDU2NiA3LjAyOTE2IDExLjQ1NjYgNy4wMjYzNSAxMS40NTY2QzYuOTkyNTkgMTEuNDc2MyA2Ljk1NjAyIDExLjQ4NDcgNi45MTk0NCAxMS40ODQ3QzYuODgyODcgMTEuNDg0NyA2Ljg0NjI5IDExLjQ3NjMgNi44MTI1MyAxMS40NTY2QzYuODEyNTMgMTEuNDU2NiA2LjgxMjUzIDExLjQ1NjYgNi44MDk3MiAxMS40NTY2TDYuMjQ3MDQgMTEuMTMwM1YxMi4xNDAzTDYuODA5NzIgMTIuNDY2NkM2Ljg0MzQ4IDEyLjQ4NjMgNi44ODI4NyAxMi40OTc2IDYuOTIyMjUgMTIuNDk3NkM2Ljk2MTY0IDEyLjQ5NzYgNy4wMDEwMyAxMi40ODYzIDcuMDM0NzkgMTIuNDY2Nkw3LjU5NzQ2IDEyLjE0MDNWMTEuMTMwM0g3LjU5MTg0Wk04LjA0MTk4IDEwLjg2ODZWMTEuODc4Nkw4Ljc3MzQ1IDExLjQ1MzhDOC44NDM3OSAxMS40MTQ0IDguODg1OTkgMTEuMzM4NCA4Ljg4NTk5IDExLjI1OTdWMTAuMzc5MUw4LjA0MTk4IDEwLjg2ODZaTTUuNzkxMjggMTAuMzQ4MVY5Ljc3NDJDNS43OTEyOCA5LjY5NTQzIDUuODMzNDggOS42MjIyOCA1LjkwMSA5LjU4MDA4TDYuNDc0OTMgOS4yMzY4NUw1LjYwNTYgOC43MTkxOUw1LjA1OTggOS4wMzcxQzQuOTg5NDcgOS4wNzY0OSA0Ljk0NzI3IDkuMTUyNDUgNC45NDcyNyA5LjIzMTIyVjkuODU1NzlMNS43OTEyOCAxMC4zNDUzVjEwLjM0ODFaTTUuNzkxMjggMTAuODY4Nkw0Ljk0NzI3IDEwLjM3OTFWMTEuMjU5N0M0Ljk0NzI3IDExLjM0MTMgNC45ODk0NyAxMS40MTQ0IDUuMDU5OCAxMS40NTM4TDUuNzkxMjggMTEuODc4NlYxMC44Njg2WiIvPiYjeGE7PC9nPiYjeGE7PGRlZnM+JiN4YTs8bGluZWFyR3JhZGllbnQgZ3JhZGllbnRVbml0cz0idXNlclNwYWNlT25Vc2UiIHkyPSIxNC43NDU2IiB4Mj0iMTMuNjg3NCIgeTE9IjIuMjY4NyIgeDE9IjEuNDUwNDMiIGlkPSJwYWludDBfbGluZWFyXzY0NzFfMjU2NjUiPiYjeGE7PHN0b3Agc3RvcC1jb2xvcj0id2hpdGUiLz4mI3hhOzxzdG9wIHN0b3AtY29sb3I9IiNFQUVDRUUiIG9mZnNldD0iMSIvPiYjeGE7PC9saW5lYXJHcmFkaWVudD4mI3hhOzxsaW5lYXJHcmFkaWVudCBncmFkaWVudFVuaXRzPSJ1c2VyU3BhY2VPblVzZSIgeTI9IjYuNjA0NDEiIHgyPSIxMi4xNTY1IiB5MT0iNC4wODQyOSIgeDE9IjkuNDI2OTciIGlkPSJwYWludDFfbGluZWFyXzY0NzFfMjU2NjUiPiYjeGE7PHN0b3Agc3RvcC1jb2xvcj0iIzAwQkJGRiIvPiYjeGE7PHN0b3Agc3RvcC1jb2xvcj0iIzAwOEJGRiIgb2Zmc2V0PSIxIi8+JiN4YTs8L2xpbmVhckdyYWRpZW50PiYjeGE7PGxpbmVhckdyYWRpZW50IGdyYWRpZW50VW5pdHM9InVzZXJTcGFjZU9uVXNlIiB5Mj0iNi42MDQ0MSIgeDI9IjEyLjE1NjUiIHkxPSI0LjA4NDI5IiB4MT0iOS40MjY5NyIgaWQ9InBhaW50Ml9saW5lYXJfNjQ3MV8yNTY2NSI+JiN4YTs8c3RvcCBzdG9wLWNvbG9yPSIjMDBCQkZGIi8+JiN4YTs8c3RvcCBzdG9wLWNvbG9yPSIjMDA4QkZGIiBvZmZzZXQ9IjEiLz4mI3hhOzwvbGluZWFyR3JhZGllbnQ+JiN4YTs8bGluZWFyR3JhZGllbnQgZ3JhZGllbnRVbml0cz0idXNlclNwYWNlT25Vc2UiIHkyPSIxMS4xOTMiIHgyPSI4LjkyMzQiIHkxPSI1LjI5NjM0IiB4MT0iNC44NDg2NSIgaWQ9InBhaW50M19saW5lYXJfNjQ3MV8yNTY2NSI+JiN4YTs8c3RvcCBzdG9wLWNvbG9yPSIjMDE5NUZGIi8+JiN4YTs8c3RvcCBzdG9wLWNvbG9yPSIjMTE0N0U5IiBvZmZzZXQ9IjAuOTkxMDI4Ii8+JiN4YTs8L2xpbmVhckdyYWRpZW50PiYjeGE7PGxpbmVhckdyYWRpZW50IGdyYWRpZW50VW5pdHM9InVzZXJTcGFjZU9uVXNlIiB5Mj0iMTEuNDA1MiIgeDI9IjguNjUyOTEiIHkxPSI4LjY1OTYiIHgxPSI1LjUyOTU4IiBpZD0icGFpbnQ0X2xpbmVhcl82NDcxXzI1NjY1Ij4mI3hhOzxzdG9wIHN0b3AtY29sb3I9IiMxMzQ4RkYiLz4mI3hhOzxzdG9wIHN0b3AtY29sb3I9IiMwNjIzOEQiIG9mZnNldD0iMSIvPiYjeGE7PC9saW5lYXJHcmFkaWVudD4mI3hhOzxjbGlwUGF0aCBpZD0iY2xpcDBfNjQ3MV8yNTY2NSI+JiN4YTs8cmVjdCB0cmFuc2Zvcm09InRyYW5zbGF0ZSgzLjQ5OTUxIDMuNDk3NTYpIiBmaWxsPSJ3aGl0ZSIgaGVpZ2h0PSI5IiB3aWR0aD0iOSIvPiYjeGE7PC9jbGlwUGF0aD4mI3hhOzwvZGVmcz4mI3hhOzwvc3ZnPg==;fontSize=12;fontColor=#1D2D3E;fontStyle=0" parent="1" vertex="1">
          <mxGeometry x="-1169.75" y="1121.25" width="42.5" height="42.5" as="geometry" />
        </mxCell>
      </root>
    </mxGraphModel>
  </diagram>
</mxfile>
